<svg version="1.1" viewBox="0.0 0.0 1024.0 1024.0" width="800px" height="800px" fill="none" stroke="none" stroke-linecap="square" stroke-miterlimit="10" xmlns:xlink="http://www.w3.org/1999/xlink" xmlns="http://www.w3.org/2000/svg"><clipPath id="p.0"><path d="m0 0l1024.0 0l0 1024.0l-1024.0 0l0 -1024.0z" clip-rule="nonzero"/></clipPath><g clip-path="url(#p.0)"><path fill="#ffffff" d="m0 0l1024.0 0l0 1024.0l-1024.0 0z" fill-rule="evenodd"/><path fill="#eeeeee" d="m163.1195 223.58614l138.33072 0l0 46.047256l-138.33072 0z" fill-rule="evenodd"/><path stroke="#000000" stroke-width="1.0" stroke-linejoin="round" stroke-linecap="butt" d="m163.1195 223.58614l138.33072 0l0 46.047256l-138.33072 0z" fill-rule="evenodd"/><path fill="#000000" d="m192.76534 254.54037q-0.3125 0.375 -0.515625 0.484375q-0.1875 0.09375 -0.46875 0.09375q-0.546875 0 -0.890625 -0.359375q-0.328125 -0.375 -0.328125 -1.234375l0 -1.609375q0 -0.875 0.328125 -1.234375q0.34375 -0.375 0.890625 -0.375q0.421875 0 0.703125 0.234375q0.296875 0.21875 0.453125 0.734375q0.15625 0.515625 0.3125 0.703125q0.34375 0.375 1.203125 0.75q0.875 0.375 1.90625 0.375q1.609375 0 2.640625 -0.75q0.65625 -0.46875 0.65625 -1.125q0 -0.453125 -0.328125 -0.84375q-0.3125 -0.390625 -1.03125 -0.65625q-0.46875 -0.171875 -2.09375 -0.46875q-1.96875 -0.375 -2.984375 -0.890625q-1.0 -0.515625 -1.59375 -1.453125q-0.578125 -0.9375 -0.578125 -2.015625q0 -1.734375 1.4375 -3.015625q1.453125 -1.296875 3.75 -1.296875q0.9375 0 1.71875 0.203125q0.796875 0.203125 1.4375 0.625q0.46875 -0.453125 0.9375 -0.453125q0.53125 0 0.859375 0.375q0.34375 0.359375 0.34375 1.21875l0 1.796875q0 0.875 -0.34375 1.25q-0.328125 0.359375 -0.859375 0.359375q-0.4375 0 -0.765625 -0.265625q-0.265625 -0.203125 -0.390625 -0.796875q-0.125 -0.609375 -0.328125 -0.859375q-0.34375 -0.453125 -1.03125 -0.75q-0.671875 -0.3125 -1.5625 -0.3125q-1.296875 0 -2.0625 0.609375q-0.75 0.609375 -0.75 1.265625q0 0.4375 0.3125 0.859375q0.3125 0.40625 0.90625 0.640625q0.40625 0.171875 2.25 0.53125q1.84375 0.359375 2.828125 0.796875q1.0 0.4375 1.65625 1.359375q0.65625 0.921875 0.65625 2.203125q0 1.78125 -1.265625 2.84375q-1.65625 1.421875 -4.234375 1.421875q-1.0 0 -1.953125 -0.25q-0.9375 -0.234375 -1.828125 -0.71875zm17.324219 -7.625l0 4.8125q0 0.765625 0.3125 1.015625q0.5 0.390625 1.765625 0.390625q1.84375 0 3.390625 -0.78125q0.609375 -0.3125 0.9375 -0.3125q0.46875 0 0.8125 0.359375q0.359375 0.34375 0.359375 0.84375q0 0.46875 -0.375 0.8125q-0.578125 0.546875 -2.28125 1.015625q-1.6875 0.46875 -2.84375 0.46875q-2.234375 0 -3.359375 -0.96875q-1.125 -0.96875 -1.125 -2.375l0 -5.28125l-0.859375 0q-0.875 0 -1.25 -0.328125q-0.359375 -0.34375 -0.359375 -0.890625q0 -0.515625 0.359375 -0.84375q0.375 -0.34375 1.25 -0.34375l0.859375 0l0 -2.171875q0 -0.859375 0.328125 -1.234375q0.34375 -0.375 0.890625 -0.375q0.515625 0 0.84375 0.375q0.34375 0.375 0.34375 1.234375l0 2.171875l4.4375 0q0.875 0 1.234375 0.34375q0.375 0.328125 0.375 0.859375q0 0.53125 -0.375 0.875q-0.359375 0.328125 -1.234375 0.328125l-4.4375 0zm14.496094 -2.40625l0 1.5q1.515625 -1.09375 2.390625 -1.453125q0.875 -0.359375 1.625 -0.359375q1.171875 0 2.28125 0.859375q0.75 0.59375 0.75 1.203125q0 0.515625 -0.359375 0.875q-0.359375 0.34375 -0.859375 0.34375q-0.453125 0 -0.953125 -0.4375q-0.484375 -0.453125 -0.859375 -0.453125q-0.515625 0 -1.515625 0.640625q-1.0 0.625 -2.5 1.890625l0 3.625l3.421875 0q0.875 0 1.234375 0.34375q0.375 0.328125 0.375 0.859375q0 0.53125 -0.375 0.875q-0.359375 0.328125 -1.234375 0.328125l-7.25 0q-0.875 0 -1.25 -0.328125q-0.359375 -0.34375 -0.359375 -0.875q0 -0.53125 0.359375 -0.859375q0.375 -0.34375 1.25 -0.34375l1.421875 0l0 -5.828125l-0.859375 0q-0.875 0 -1.25 -0.328125q-0.359375 -0.34375 -0.359375 -0.890625q0 -0.515625 0.359375 -0.84375q0.375 -0.34375 1.25 -0.34375l3.265625 0zm15.761719 -4.5625l0 2.546875l-2.859375 0l0 -2.546875l2.859375 0zm0.328125 4.5625l0 8.234375l2.890625 0q0.859375 0 1.21875 0.34375q0.375 0.328125 0.375 0.859375q0 0.53125 -0.375 0.875q-0.359375 0.328125 -1.21875 0.328125l-8.171875 0q-0.875 0 -1.25 -0.328125q-0.359375 -0.34375 -0.359375 -0.875q0 -0.53125 0.359375 -0.859375q0.375 -0.34375 1.25 -0.34375l2.875 0l0 -5.828125l-1.921875 0q-0.859375 0 -1.234375 -0.328125q-0.375 -0.34375 -0.375 -0.890625q0 -0.515625 0.359375 -0.84375q0.375 -0.34375 1.25 -0.34375l4.328125 0zm10.777344 0l0 0.8125q0.65625 -0.5625 1.453125 -0.84375q0.796875 -0.28125 1.71875 -0.28125q2.1250153 0 3.3750153 1.3125q0.984375 1.0625 0.984375 2.765625l0 4.46875q0.765625 0 1.125 0.34375q0.359375 0.328125 0.359375 0.859375q0 0.53125 -0.375 0.875q-0.359375 0.328125 -1.234375 0.328125l-2.15625 0q-0.87501526 0 -1.2500153 -0.328125q-0.359375 -0.34375 -0.359375 -0.875q0 -0.53125 0.359375 -0.859375q0.359375 -0.34375 1.1250153 -0.34375l0 -4.53125q0 -0.78125 -0.421875 -1.15625q-0.54689026 -0.46875 -1.6562653 -0.46875q-0.828125 0 -1.453125 0.328125q-0.625 0.328125 -1.59375 1.359375l0 4.46875q0.9375 0 1.203125 0.171875q0.578125 0.359375 0.578125 1.03125q0 0.53125 -0.375 0.875q-0.375 0.328125 -1.234375 0.328125l-2.734375 0q-0.859375 0 -1.234375 -0.328125q-0.375 -0.34375 -0.375 -0.875q0 -0.65625 0.5625 -1.03125q0.28125 -0.171875 1.21875 -0.171875l0 -5.828125q-0.765625 0 -1.140625 -0.34375q-0.359375 -0.34375 -0.359375 -0.875q0 -0.515625 0.375 -0.84375q0.375 -0.34375 1.234375 -0.34375l2.28125 0zm19.480484 0.71875l0 -0.71875l2.8125 0q0.875 0 1.234375 0.34375q0.375 0.328125 0.375 0.859375q0 0.53125 -0.375 0.875q-0.359375 0.328125 -1.234375 0.328125l-0.40625 0l0 8.734375q0 1.265625 -0.53125 2.203125q-0.53125 0.953125 -1.640625 1.625q-1.09375 0.6875 -2.484375 0.6875l-2.71875 0q-0.859375 0 -1.234375 -0.34375q-0.375 -0.328125 -0.375 -0.84375q0 -0.546875 0.375 -0.890625q0.375 -0.328125 1.234375 -0.328125l2.65625 0q1.09375 0 1.703125 -0.59375q0.609375 -0.59375 0.609375 -1.515625l0 -1.171875q-0.796875 0.515625 -1.625 0.765625q-0.828125 0.265625 -1.6875 0.265625q-2.453125 0 -4.109375 -1.625q-1.640625 -1.640625 -1.640625 -4.046875q0 -2.40625 1.640625 -4.046875q1.65625 -1.640625 4.109375 -1.640625q0.90625 0 1.734375 0.265625q0.828125 0.265625 1.578125 0.8125zm-0.015625 4.59375q0 -1.3125 -0.984375 -2.28125q-0.96875 -0.984375 -2.34375 -0.984375q-1.359375 0 -2.34375 0.984375q-0.984375 0.96875 -0.984375 2.28125q0 1.34375 0.984375 2.3125q0.984375 0.96875 2.34375 0.96875q1.375 0 2.34375 -0.96875q0.984375 -0.96875 0.984375 -2.3125z" fill-rule="nonzero"/><path fill="#eeeeee" d="m256.62366 292.1621l99.71652 0l0 46.04724l-99.71652 0z" fill-rule="evenodd"/><path stroke="#000000" stroke-width="1.0" stroke-linejoin="round" stroke-linecap="butt" d="m256.62366 292.1621l99.71652 0l0 46.04724l-99.71652 0z" fill-rule="evenodd"/><path fill="#000000" d="m279.50537 321.31946l0 -9.390625q-0.765625 -0.015625 -1.125 -0.34375q-0.359375 -0.34375 -0.359375 -0.875q0 -0.53125 0.359375 -0.859375q0.375 -0.34375 1.25 -0.34375l5.015625 0.015625q1.171875 0 2.296875 0.4375q1.125 0.421875 1.796875 1.09375q0.515625 0.5 1.0625 1.390625q0.5625 0.875 0.84375 1.75q0.28125 0.859375 0.28125 2.109375l0 1.15625q0 1.515625 -0.515625 2.703125q-0.515625 1.171875 -1.359375 1.921875q-0.828125 0.734375 -1.5625 1.09375q-1.171875 0.546875 -3.03125 0.546875l-4.828125 0q-0.875 0 -1.25 -0.328125q-0.359375 -0.34375 -0.359375 -0.875q0 -0.53125 0.359375 -0.875q0.375 -0.34375 1.125 -0.328125zm2.40625 0l2.546875 0q1.4375 0 2.15625 -0.40625q0.953125 -0.546875 1.4375 -1.375q0.484375 -0.828125 0.484375 -2.15625l0 -1.140625q0 -1.125 -0.4375 -1.984375q-0.6875 -1.34375 -1.53125 -1.828125q-0.84375 -0.5 -2.125 -0.5l-2.53125 0l0 9.390625zm19.527344 2.40625l0 -0.5625q-0.890625 0.484375 -1.984375 0.71875q-1.09375 0.25 -1.984375 0.25q-1.9375 0 -3.140625 -1.03125q-1.203125 -1.03125 -1.203125 -2.265625q0 -1.515625 1.53125 -2.8125q1.546875 -1.296875 4.265625 -1.296875q1.09375 0 2.515625 0.234375l0 -0.578125q0 -0.53125 -0.46875 -0.875q-0.453125 -0.34375 -1.75 -0.34375q-1.0625 0 -2.765625 0.421875q-0.640625 0.15625 -0.984375 0.15625q-0.484375 0 -0.828125 -0.34375q-0.328125 -0.34375 -0.328125 -0.890625q0 -0.296875 0.109375 -0.515625q0.125 -0.234375 0.328125 -0.359375q0.21875 -0.140625 0.890625 -0.328125q0.890625 -0.25 1.8125 -0.390625q0.9375 -0.140625 1.6875 -0.140625q2.234375 0 3.46875 0.96875q1.234375 0.953125 1.234375 2.640625l0 4.9375l0.40625 0q0.875 0 1.234375 0.34375q0.375 0.328125 0.375 0.859375q0 0.53125 -0.375 0.875q-0.359375 0.328125 -1.234375 0.328125l-2.8125 0zm0 -4.296875q-1.4375 -0.28125 -2.65625 -0.28125q-1.46875 0 -2.515625 0.703125q-0.65625 0.46875 -0.65625 0.9375q0 0.328125 0.3125 0.546875q0.59375 0.390625 1.609375 0.390625q0.859375 0 1.953125 -0.34375q1.109375 -0.34375 1.953125 -0.921875l0 -1.03125zm11.652344 -3.9375l0 4.8125q0 0.765625 0.3125 1.015625q0.5 0.390625 1.765625 0.390625q1.84375 0 3.390625 -0.78125q0.609375 -0.3125 0.9375 -0.3125q0.46875 0 0.8125 0.359375q0.359375 0.34375 0.359375 0.84375q0 0.46875 -0.375 0.8125q-0.578125 0.546875 -2.28125 1.015625q-1.6875 0.46875 -2.84375 0.46875q-2.234375 0 -3.359375 -0.96875q-1.125 -0.96875 -1.125 -2.375l0 -5.28125l-0.859375 0q-0.875 0 -1.25 -0.328125q-0.359375 -0.34375 -0.359375 -0.890625q0 -0.515625 0.359375 -0.84375q0.375 -0.34375 1.25 -0.34375l0.859375 0l0 -2.171875q0 -0.859375 0.328125 -1.234375q0.34375 -0.375 0.890625 -0.375q0.515625 0 0.84375 0.375q0.34375 0.375 0.34375 1.234375l0 2.171875l4.4375 0q0.875 0 1.234375 0.34375q0.375 0.328125 0.375 0.859375q0 0.53125 -0.375 0.875q-0.359375 0.328125 -1.234375 0.328125l-4.4375 0zm17.152344 8.234375l0 -0.5625q-0.890625 0.484375 -1.984375 0.71875q-1.09375 0.25 -1.984375 0.25q-1.9375 0 -3.140625 -1.03125q-1.203125 -1.03125 -1.203125 -2.265625q0 -1.515625 1.53125 -2.8125q1.546875 -1.296875 4.265625 -1.296875q1.09375 0 2.515625 0.234375l0 -0.578125q0 -0.53125 -0.46875 -0.875q-0.453125 -0.34375 -1.75 -0.34375q-1.0625 0 -2.765625 0.421875q-0.640625 0.15625 -0.984375 0.15625q-0.484375 0 -0.828125 -0.34375q-0.328125 -0.34375 -0.328125 -0.890625q0 -0.296875 0.109375 -0.515625q0.125 -0.234375 0.328125 -0.359375q0.21875 -0.140625 0.890625 -0.328125q0.890625 -0.25 1.8125 -0.390625q0.9375 -0.140625 1.6875 -0.140625q2.234375 0 3.46875 0.96875q1.234375 0.953125 1.234375 2.640625l0 4.9375l0.40625 0q0.875 0 1.234375 0.34375q0.375 0.328125 0.375 0.859375q0 0.53125 -0.375 0.875q-0.359375 0.328125 -1.234375 0.328125l-2.8125 0zm0 -4.296875q-1.4375 -0.28125 -2.65625 -0.28125q-1.46875 0 -2.515625 0.703125q-0.65625 0.46875 -0.65625 0.9375q0 0.328125 0.3125 0.546875q0.59375 0.390625 1.609375 0.390625q0.859375 0 1.953125 -0.34375q1.109375 -0.34375 1.953125 -0.921875l0 -1.03125z" fill-rule="nonzero"/><path fill="#eeeeee" d="m32.04461 89.53511l217.13385 0l0 46.04724l-217.13385 0z" fill-rule="evenodd"/><path stroke="#000000" stroke-width="1.0" stroke-linejoin="round" stroke-linecap="butt" d="m32.04461 89.53511l217.13385 0l0 46.04724l-217.13385 0z" fill-rule="evenodd"/><path fill="#000000" d="m72.3674 107.50498q0.21875 -0.3125 0.484375 -0.453125q0.265625 -0.15625 0.578125 -0.15625q0.515625 0 0.84375 0.359375q0.34375 0.359375 0.34375 1.234375l0 2.03125q0 0.875 -0.34375 1.25q-0.328125 0.359375 -0.84375 0.359375q-0.484375 0 -0.78125 -0.265625q-0.296875 -0.265625 -0.4375 -1.015625q-0.078125 -0.484375 -0.328125 -0.75q-0.46875 -0.53125 -1.34375 -0.84375q-0.859375 -0.328125 -1.71875 -0.328125q-1.078125 0 -1.984375 0.46875q-0.90625 0.46875 -1.59375 1.53125q-0.6875 1.046875 -0.6875 2.5l0 1.5625q0 1.734375 1.25 2.90625q1.265625 1.15625 3.5 1.15625q1.34375 0 2.265625 -0.375q0.546875 -0.203125 1.15625 -0.828125q0.375 -0.375 0.578125 -0.484375q0.21875 -0.109375 0.484375 -0.109375q0.484375 0 0.84375 0.359375q0.359375 0.359375 0.359375 0.859375q0 0.484375 -0.484375 1.046875q-0.71875 0.828125 -1.84375 1.296875q-1.515625 0.640625 -3.34375 0.640625q-2.125 0 -3.84375 -0.890625q-1.375 -0.703125 -2.359375 -2.21875q-0.96875 -1.515625 -0.96875 -3.3125l0 -1.625q0 -1.875 0.875 -3.5q0.875 -1.625 2.421875 -2.5q1.546875 -0.875 3.28125 -0.875q1.046875 0 1.953125 0.234375q0.90625 0.234375 1.6875 0.734375zm24.039062 1.796875l0 9.390625l5.171875 0l0 -2.265625q0 -0.875 0.328125 -1.234375q0.34375 -0.375 0.890625 -0.375q0.515625 0 0.84375 0.375q0.34375 0.359375 0.34375 1.234375l0 4.671875l-11.375 0q-0.875 0 -1.25 -0.328125q-0.359375 -0.34375 -0.359375 -0.875q0 -0.53125 0.359375 -0.859375q0.375 -0.34375 1.25 -0.34375l1.390625 0l0 -9.390625l-1.390625 0q-0.875 0 -1.25 -0.328125q-0.359375 -0.34375 -0.359375 -0.890625q0 -0.53125 0.359375 -0.859375q0.375 -0.34375 1.25 -0.34375l5.203125 0.015625q0.859375 0 1.234375 0.328125q0.375 0.328125 0.375 0.859375q0 0.546875 -0.375 0.890625q-0.375 0.328125 -1.234375 0.328125l-1.40625 0zm16.261719 -3.40625l0 2.546875l-2.859375 0l0 -2.546875l2.859375 0zm0.328125 4.5625l0 8.234375l2.890625 0q0.859375 0 1.21875 0.34375q0.375 0.328125 0.375 0.859375q0 0.53125 -0.375 0.875q-0.359375 0.328125 -1.21875 0.328125l-8.171875 0q-0.875 0 -1.25 -0.328125q-0.359375 -0.34375 -0.359375 -0.875q0 -0.53125 0.359375 -0.859375q0.375 -0.34375 1.25 -0.34375l2.875 0l0 -5.828125l-1.921875 0q-0.859375 0 -1.234375 -0.328125q-0.375 -0.34375 -0.375 -0.890625q0 -0.515625 0.359375 -0.84375q0.375 -0.34375 1.25 -0.34375l4.328125 0zm10.183594 -4.5625l0 5.390625q0.875 -0.578125 1.78125 -0.859375q0.921875 -0.28125 1.84375 -0.28125q2.5 0 4.234375 1.71875q1.734375 1.71875 1.734375 4.15625q0 2.328125 -1.65625 3.90625q-1.65625 1.5625 -4.359375 1.5625q-0.96875 0 -1.859375 -0.25q-0.890625 -0.25 -1.71875 -0.734375l0 0.59375l-2.8125 0q-0.859375 0 -1.234375 -0.328125q-0.375 -0.34375 -0.375 -0.875q0 -0.53125 0.375 -0.859375q0.375 -0.34375 1.234375 -0.34375l0.40625 0l0 -10.390625l-0.40625 0q-0.859375 0 -1.234375 -0.328125q-0.375 -0.34375 -0.375 -0.875q0 -0.53125 0.375 -0.859375q0.375 -0.34375 1.234375 -0.34375l2.8125 0zm7.1875 10.203125q0 -1.5 -1.046875 -2.53125q-1.046875 -1.03125 -2.546875 -1.03125q-1.5 0 -2.546875 1.03125q-1.046875 1.03125 -1.046875 2.484375q0 1.328125 0.9375 2.1875q0.9375 0.84375 2.65625 0.84375q1.703125 0 2.640625 -0.84375q0.953125 -0.859375 0.953125 -2.140625zm9.746094 -5.640625l0 1.5q1.515625 -1.09375 2.390625 -1.453125q0.875 -0.359375 1.625 -0.359375q1.171875 0 2.28125 0.859375q0.75 0.59375 0.75 1.203125q0 0.515625 -0.359375 0.875q-0.359375 0.34375 -0.859375 0.34375q-0.453125 0 -0.953125 -0.4375q-0.484375 -0.453125 -0.859375 -0.453125q-0.515625 0 -1.515625 0.640625q-1.0 0.625 -2.5 1.890625l0 3.625l3.421875 0q0.875 0 1.234375 0.34375q0.375 0.328125 0.375 0.859375q0 0.53125 -0.375 0.875q-0.359375 0.328125 -1.234375 0.328125l-7.25 0q-0.875 0 -1.25 -0.328125q-0.359375 -0.34375 -0.359375 -0.875q0 -0.53125 0.359375 -0.859375q0.375 -0.34375 1.25 -0.34375l1.421875 0l0 -5.828125l-0.859375 0q-0.875 0 -1.25 -0.328125q-0.359375 -0.34375 -0.359375 -0.890625q0 -0.515625 0.359375 -0.84375q0.375 -0.34375 1.25 -0.34375l3.265625 0zm17.058594 10.640625l0 -0.5625q-0.890625 0.484375 -1.984375 0.71875q-1.09375 0.25 -1.984375 0.25q-1.9375 0 -3.140625 -1.03125q-1.203125 -1.03125 -1.203125 -2.265625q0 -1.515625 1.53125 -2.8125q1.546875 -1.296875 4.265625 -1.296875q1.09375 0 2.515625 0.234375l0 -0.578125q0 -0.53125 -0.46875 -0.875q-0.453125 -0.34375 -1.75 -0.34375q-1.0625 0 -2.765625 0.421875q-0.640625 0.15625 -0.984375 0.15625q-0.484375 0 -0.828125 -0.34375q-0.328125 -0.34375 -0.328125 -0.890625q0 -0.296875 0.109375 -0.515625q0.125 -0.234375 0.328125 -0.359375q0.21875 -0.140625 0.890625 -0.328125q0.890625 -0.25 1.8125 -0.390625q0.9375 -0.140625 1.6875 -0.140625q2.234375 0 3.46875 0.96875q1.234375 0.953125 1.234375 2.640625l0 4.9375l0.40625 0q0.87498474 0 1.2343597 0.34375q0.375 0.328125 0.375 0.859375q0 0.53125 -0.375 0.875q-0.359375 0.328125 -1.2343597 0.328125l-2.8125 0zm0 -4.296875q-1.4375 -0.28125 -2.65625 -0.28125q-1.46875 0 -2.515625 0.703125q-0.65625 0.46875 -0.65625 0.9375q0 0.328125 0.3125 0.546875q0.59375 0.390625 1.609375 0.390625q0.859375 0 1.953125 -0.34375q1.109375 -0.34375 1.953125 -0.921875l0 -1.03125zm11.7460785 -6.34375l0 1.5q1.515625 -1.09375 2.390625 -1.453125q0.875 -0.359375 1.625 -0.359375q1.171875 0 2.28125 0.859375q0.75 0.59375 0.75 1.203125q0 0.515625 -0.359375 0.875q-0.359375 0.34375 -0.859375 0.34375q-0.453125 0 -0.953125 -0.4375q-0.484375 -0.453125 -0.859375 -0.453125q-0.515625 0 -1.515625 0.640625q-1.0 0.625 -2.5 1.890625l0 3.625l3.421875 0q0.875 0 1.234375 0.34375q0.375 0.328125 0.375 0.859375q0 0.53125 -0.375 0.875q-0.359375 0.328125 -1.234375 0.328125l-7.25 0q-0.875 0 -1.25 -0.328125q-0.359375 -0.34375 -0.359375 -0.875q0 -0.53125 0.359375 -0.859375q0.375 -0.34375 1.25 -0.34375l1.421875 0l0 -5.828125l-0.859375 0q-0.875 0 -1.25 -0.328125q-0.359375 -0.34375 -0.359375 -0.890625q0 -0.515625 0.359375 -0.84375q0.375 -0.34375 1.25 -0.34375l3.265625 0zm15.761719 -4.5625l0 2.546875l-2.859375 0l0 -2.546875l2.859375 0zm0.328125 4.5625l0 8.234375l2.890625 0q0.859375 0 1.21875 0.34375q0.375 0.328125 0.375 0.859375q0 0.53125 -0.375 0.875q-0.359375 0.328125 -1.21875 0.328125l-8.171875 0q-0.875 0 -1.25 -0.328125q-0.359375 -0.34375 -0.359375 -0.875q0 -0.53125 0.359375 -0.859375q0.375 -0.34375 1.25 -0.34375l2.875 0l0 -5.828125l-1.921875 0q-0.859375 0 -1.234375 -0.328125q-0.375 -0.34375 -0.375 -0.890625q0 -0.515625 0.359375 -0.84375q0.375 -0.34375 1.25 -0.34375l4.328125 0zm19.246094 6.53125l-9.859375 0q0.375 0.9375 1.328125 1.515625q0.953125 0.578125 2.59375 0.578125q1.328125 0 3.546875 -0.578125q0.90625 -0.234375 1.265625 -0.234375q0.484375 0 0.8125 0.34375q0.328125 0.34375 0.328125 0.859375q0 0.46875 -0.359375 0.796875q-0.46875 0.421875 -2.28125 0.828125q-1.8125 0.390625 -3.5 0.390625q-2.875 0 -4.609375 -1.625q-1.71875 -1.640625 -1.71875 -4.015625q0 -2.53125 1.859375 -4.109375q1.875 -1.59375 4.3125 -1.59375q1.46875 0 2.6875 0.515625q1.21875 0.515625 1.828125 1.109375q0.84375 0.859375 1.390625 2.140625q0.375 0.890625 0.375 2.0625l0 1.015625zm-2.65625 -2.390625q-0.5625 -1.03125 -1.453125 -1.546875q-0.890625 -0.515625 -2.109375 -0.515625q-1.21875 0 -2.109375 0.515625q-0.890625 0.515625 -1.453125 1.546875l7.125 0zm13.621094 -1.328125q-0.578125 -0.359375 -1.234375 -0.546875q-0.640625 -0.1875 -1.34375 -0.1875q-1.390625 0 -2.21875 0.46875q-0.359375 0.1875 -0.359375 0.421875q0 0.28125 0.5 0.53125q0.375 0.1875 1.671875 0.359375q2.390625 0.328125 3.328125 0.65625q1.234375 0.4375 1.890625 1.296875q0.671875 0.859375 0.671875 1.796875q0 1.296875 -1.140625 2.15625q-1.625 1.265625 -4.21875 1.265625q-1.046875 0 -1.9375 -0.1875q-0.875 -0.171875 -1.625 -0.53125q-0.171875 0.15625 -0.375 0.234375q-0.1875 0.078125 -0.40625 0.078125q-0.5625 0 -0.90625 -0.359375q-0.328125 -0.375 -0.328125 -1.25l0 -0.796875q0 -0.875 0.328125 -1.234375q0.34375 -0.375 0.890625 -0.375q0.421875 0 0.71875 0.25q0.296875 0.234375 0.453125 0.8125q0.5625 0.46875 1.328125 0.71875q0.78125 0.234375 1.78125 0.234375q1.65625 0 2.5625 -0.515625q0.4375 -0.265625 0.4375 -0.546875q0 -0.46875 -0.625 -0.765625q-0.609375 -0.3125 -2.5625 -0.515625q-2.890625 -0.3125 -3.859375 -1.171875q-0.984375 -0.859375 -0.984375 -2.109375q0 -1.296875 1.09375 -2.140625q1.484375 -1.171875 3.875 -1.171875q0.828125 0 1.59375 0.15625q0.765625 0.15625 1.46875 0.484375q0.21875 -0.171875 0.40625 -0.25q0.203125 -0.078125 0.375 -0.078125q0.484375 0 0.8125 0.375q0.328125 0.359375 0.328125 1.234375l0 0.578125q0 0.78125 -0.1875 1.0625q-0.375 0.546875 -1.015625 0.546875q-0.4375 0 -0.765625 -0.265625q-0.328125 -0.28125 -0.421875 -0.71875z" fill-rule="nonzero"/><path fill="#eeeeee" d="m575.2262 622.61633l217.13385 0l0 46.04724l-217.13385 0z" fill-rule="evenodd"/><path stroke="#000000" stroke-width="1.0" stroke-linejoin="round" stroke-linecap="butt" d="m575.2262 622.61633l217.13385 0l0 46.04724l-217.13385 0z" fill-rule="evenodd"/><path fill="#000000" d="m610.7833 642.3831l0 9.390625l5.171875 0l0 -2.265625q0 -0.875 0.328125 -1.234375q0.34375 -0.375 0.890625 -0.375q0.515625 0 0.84375 0.375q0.34375 0.359375 0.34375 1.234375l0 4.671875l-11.375 0q-0.875 0 -1.25 -0.328125q-0.359375 -0.34375 -0.359375 -0.875q0 -0.53125 0.359375 -0.859375q0.375 -0.34375 1.25 -0.34375l1.390625 0l0 -9.390625l-1.390625 0q-0.875 0 -1.25 -0.328125q-0.359375 -0.34375 -0.359375 -0.890625q0 -0.53125 0.359375 -0.859375q0.375 -0.34375 1.25 -0.34375l5.203125 0.015625q0.859375 0 1.234375 0.328125q0.375 0.328125 0.375 0.859375q0 0.546875 -0.375 0.890625q-0.375 0.328125 -1.234375 0.328125l-1.40625 0zm16.261719 -3.40625l0 2.546875l-2.859375 0l0 -2.546875l2.859375 0zm0.328125 4.5625l0 8.234375l2.890625 0q0.859375 0 1.21875 0.34375q0.375 0.328125 0.375 0.859375q0 0.53125 -0.375 0.875q-0.359375 0.328125 -1.21875 0.328125l-8.171875 0q-0.875 0 -1.25 -0.328125q-0.359375 -0.34375 -0.359375 -0.875q0 -0.53125 0.359375 -0.859375q0.375 -0.34375 1.25 -0.34375l2.875 0l0 -5.828125l-1.921875 0q-0.859375 0 -1.234375 -0.328125q-0.375 -0.34375 -0.375 -0.890625q0 -0.515625 0.359375 -0.84375q0.375 -0.34375 1.25 -0.34375l4.328125 0zm10.777344 0l0 0.8125q0.65625 -0.5625 1.453125 -0.84375q0.796875 -0.28125 1.71875 -0.28125q2.125 0 3.375 1.3125q0.984375 1.0625 0.984375 2.765625l0 4.46875q0.765625 0 1.125 0.34375q0.359375 0.328125 0.359375 0.859375q0 0.53125 -0.375 0.875q-0.359375 0.328125 -1.234375 0.328125l-2.15625 0q-0.875 0 -1.25 -0.328125q-0.359375 -0.34375 -0.359375 -0.875q0 -0.53125 0.359375 -0.859375q0.359375 -0.34375 1.125 -0.34375l0 -4.53125q0 -0.78125 -0.421875 -1.15625q-0.546875 -0.46875 -1.65625 -0.46875q-0.828125 0 -1.453125 0.328125q-0.625 0.328125 -1.59375 1.359375l0 4.46875q0.9375 0 1.203125 0.171875q0.578125 0.359375 0.578125 1.03125q0 0.53125 -0.375 0.875q-0.375 0.328125 -1.234375 0.328125l-2.734375 0q-0.859375 0 -1.234375 -0.328125q-0.375 -0.34375 -0.375 -0.875q0 -0.65625 0.5625 -1.03125q0.28125 -0.171875 1.21875 -0.171875l0 -5.828125q-0.765625 0 -1.140625 -0.34375q-0.359375 -0.34375 -0.359375 -0.875q0 -0.515625 0.375 -0.84375q0.375 -0.34375 1.234375 -0.34375l2.28125 0zm14.871094 6.640625l0 4.0l-2.8125 0q-0.875 0 -1.25 -0.328125q-0.359375 -0.34375 -0.359375 -0.875q0 -0.53125 0.375 -0.859375q0.375 -0.34375 1.234375 -0.34375l0.40625 0l0 -10.390625l-0.40625 0q-0.875 0 -1.25 -0.328125q-0.359375 -0.34375 -0.359375 -0.875q0 -0.53125 0.359375 -0.859375q0.375 -0.34375 1.25 -0.34375l2.8125 0l0 8.09375l1.875 -1.5q-0.296875 -0.515625 -0.296875 -0.828125q0 -0.53125 0.359375 -0.859375q0.359375 -0.34375 1.234375 -0.34375l2.734375 0q0.875 0 1.234375 0.34375q0.375 0.328125 0.375 0.859375q0 0.53125 -0.375 0.875q-0.359375 0.328125 -1.234375 0.328125l-0.65625 0l-2.921875 2.359375l3.921875 3.46875l0.703125 0q0.875 0 1.234375 0.34375q0.375 0.328125 0.375 0.859375q0 0.53125 -0.375 0.875q-0.359375 0.328125 -1.234375 0.328125l-2.765625 0q-0.859375 0 -1.234375 -0.328125q-0.375 -0.34375 -0.375 -0.875q0 -0.46875 0.40625 -0.90625l-2.546875 -2.25l-0.4375 0.359375zm22.402344 -0.109375l-9.859375 0q0.375 0.9375 1.328125 1.515625q0.953125 0.578125 2.59375 0.578125q1.328125 0 3.546875 -0.578125q0.90625 -0.234375 1.265625 -0.234375q0.484375 0 0.8125 0.34375q0.328125 0.34375 0.328125 0.859375q0 0.46875 -0.359375 0.796875q-0.46875 0.421875 -2.28125 0.828125q-1.8125 0.390625 -3.5 0.390625q-2.875 0 -4.609375 -1.625q-1.71875 -1.640625 -1.71875 -4.015625q0 -2.53125 1.859375 -4.109375q1.875 -1.59375 4.3125 -1.59375q1.46875 0 2.6875 0.515625q1.21875 0.515625 1.828125 1.109375q0.84375 0.859375 1.390625 2.140625q0.375 0.890625 0.375 2.0625l0 1.015625zm-2.65625 -2.390625q-0.5625 -1.03125 -1.453125 -1.546875q-0.890625 -0.515625 -2.109375 -0.515625q-1.21875 0 -2.109375 0.515625q-0.890625 0.515625 -1.453125 1.546875l7.125 0zm16.542969 -8.703125l0 12.796875l0.40625 0q0.859375 0 1.234375 0.34375q0.375 0.328125 0.375 0.859375q0 0.53125 -0.375 0.875q-0.359375 0.328125 -1.234375 0.328125l-2.8125 0l0 -0.59375q-0.8125 0.484375 -1.71875 0.734375q-0.890625 0.25 -1.859375 0.25q-2.703125 0 -4.359375 -1.5625q-1.640625 -1.578125 -1.640625 -3.90625q0 -2.4375 1.734375 -4.15625q1.734375 -1.71875 4.21875 -1.71875q0.9375 0 1.84375 0.28125q0.90625 0.28125 1.78125 0.859375l0 -2.984375l-0.40625 0q-0.875 0 -1.25 -0.328125q-0.359375 -0.34375 -0.359375 -0.875q0 -0.53125 0.359375 -0.859375q0.375 -0.34375 1.25 -0.34375l2.8125 0zm-2.40625 10.203125q0 -1.5 -1.046875 -2.53125q-1.03125 -1.03125 -2.546875 -1.03125q-1.5 0 -2.546875 1.03125q-1.046875 1.03125 -1.046875 2.484375q0 1.328125 0.9375 2.1875q0.9375 0.84375 2.65625 0.84375q1.703125 0 2.640625 -0.84375q0.953125 -0.859375 0.953125 -2.140625zm24.695312 -6.796875l0 9.390625l5.171875 0l0 -2.265625q0 -0.875 0.328125 -1.234375q0.34375 -0.375 0.890625 -0.375q0.515625 0 0.84375 0.375q0.34375 0.359375 0.34375 1.234375l0 4.671875l-11.375 0q-0.875 0 -1.25 -0.328125q-0.359375 -0.34375 -0.359375 -0.875q0 -0.53125 0.359375 -0.859375q0.375 -0.34375 1.25 -0.34375l1.390625 0l0 -9.390625l-1.390625 0q-0.875 0 -1.25 -0.328125q-0.359375 -0.34375 -0.359375 -0.890625q0 -0.53125 0.359375 -0.859375q0.375 -0.34375 1.25 -0.34375l5.203125 0.015625q0.859375 0 1.234375 0.328125q0.375 0.328125 0.375 0.859375q0 0.546875 -0.375 0.890625q-0.375 0.328125 -1.234375 0.328125l-1.40625 0zm16.261719 -3.40625l0 2.546875l-2.859375 0l0 -2.546875l2.859375 0zm0.328125 4.5625l0 8.234375l2.890625 0q0.859375 0 1.21875 0.34375q0.375 0.328125 0.375 0.859375q0 0.53125 -0.375 0.875q-0.359375 0.328125 -1.21875 0.328125l-8.171875 0q-0.875 0 -1.25 -0.328125q-0.359375 -0.34375 -0.359375 -0.875q0 -0.53125 0.359375 -0.859375q0.375 -0.34375 1.25 -0.34375l2.875 0l0 -5.828125l-1.921875 0q-0.859375 0 -1.234375 -0.328125q-0.375 -0.34375 -0.375 -0.890625q0 -0.515625 0.359375 -0.84375q0.375 -0.34375 1.25 -0.34375l4.328125 0zm15.808594 2.8125q-0.578125 -0.359375 -1.234375 -0.546875q-0.640625 -0.1875 -1.34375 -0.1875q-1.390625 0 -2.21875 0.46875q-0.359375 0.1875 -0.359375 0.421875q0 0.28125 0.5 0.53125q0.375 0.1875 1.671875 0.359375q2.390625 0.328125 3.328125 0.65625q1.234375 0.4375 1.890625 1.296875q0.671875 0.859375 0.671875 1.796875q0 1.296875 -1.140625 2.15625q-1.625 1.265625 -4.21875 1.265625q-1.046875 0 -1.9375 -0.1875q-0.875 -0.171875 -1.625 -0.53125q-0.171875 0.15625 -0.375 0.234375q-0.1875 0.078125 -0.40625 0.078125q-0.5625 0 -0.90625 -0.359375q-0.328125 -0.375 -0.328125 -1.25l0 -0.796875q0 -0.875 0.328125 -1.234375q0.34375 -0.375 0.890625 -0.375q0.421875 0 0.71875 0.25q0.296875 0.234375 0.453125 0.8125q0.5625 0.46875 1.328125 0.71875q0.78125 0.234375 1.78125 0.234375q1.65625 0 2.5625 -0.515625q0.4375 -0.265625 0.4375 -0.546875q0 -0.46875 -0.625 -0.765625q-0.609375 -0.3125 -2.5625 -0.515625q-2.890625 -0.3125 -3.859375 -1.171875q-0.984375 -0.859375 -0.984375 -2.109375q0 -1.296875 1.09375 -2.140625q1.484375 -1.171875 3.875 -1.171875q0.828125 0 1.59375 0.15625q0.765625 0.15625 1.46875 0.484375q0.21875 -0.171875 0.40625 -0.25q0.203125 -0.078125 0.375 -0.078125q0.484375 0 0.8125 0.375q0.328125 0.359375 0.328125 1.234375l0 0.578125q0 0.78125 -0.1875 1.0625q-0.375 0.546875 -1.015625 0.546875q-0.4375 0 -0.765625 -0.265625q-0.328125 -0.28125 -0.421875 -0.71875zm11.214844 -0.40625l0 4.8125q0 0.765625 0.3125 1.015625q0.5 0.390625 1.765625 0.390625q1.84375 0 3.390625 -0.78125q0.609375 -0.3125 0.9375 -0.3125q0.46875 0 0.8125 0.359375q0.359375 0.34375 0.359375 0.84375q0 0.46875 -0.375 0.8125q-0.578125 0.546875 -2.28125 1.015625q-1.6875 0.46875 -2.84375 0.46875q-2.234375 0 -3.359375 -0.96875q-1.125 -0.96875 -1.125 -2.375l0 -5.28125l-0.859375 0q-0.875 0 -1.25 -0.328125q-0.359375 -0.34375 -0.359375 -0.890625q0 -0.515625 0.359375 -0.84375q0.375 -0.34375 1.25 -0.34375l0.859375 0l0 -2.171875q0 -0.859375 0.328125 -1.234375q0.34375 -0.375 0.890625 -0.375q0.515625 0 0.84375 0.375q0.34375 0.375 0.34375 1.234375l0 2.171875l4.4375 0q0.875 0 1.234375 0.34375q0.375 0.328125 0.375 0.859375q0 0.53125 -0.375 0.875q-0.359375 0.328125 -1.234375 0.328125l-4.4375 0z" fill-rule="nonzero"/><path fill="#eeeeee" d="m713.4589 684.9426l117.921265 0l0 46.047302l-117.921265 0z" fill-rule="evenodd"/><path stroke="#000000" stroke-width="1.0" stroke-linejoin="round" stroke-linecap="butt" d="m713.4589 684.9426l117.921265 0l0 46.047302l-117.921265 0z" fill-rule="evenodd"/><path fill="#000000" d="m740.1012 715.8969q-0.3125 0.375 -0.515625 0.484375q-0.1875 0.09375 -0.46875 0.09375q-0.546875 0 -0.890625 -0.359375q-0.328125 -0.375 -0.328125 -1.234375l0 -1.609375q0 -0.875 0.328125 -1.234375q0.34375 -0.375 0.890625 -0.375q0.421875 0 0.703125 0.234375q0.296875 0.21875 0.453125 0.734375q0.15625 0.515625 0.3125 0.703125q0.34375 0.375 1.203125 0.75q0.875 0.375 1.90625 0.375q1.609375 0 2.640625 -0.75q0.65625 -0.46875 0.65625 -1.125q0 -0.453125 -0.328125 -0.84375q-0.3125 -0.390625 -1.03125 -0.65625q-0.46875 -0.171875 -2.09375 -0.46875q-1.96875 -0.375 -2.984375 -0.890625q-1.0 -0.515625 -1.59375 -1.453125q-0.578125 -0.9375 -0.578125 -2.015625q0 -1.734375 1.4375 -3.015625q1.453125 -1.296875 3.75 -1.296875q0.9375 0 1.71875 0.203125q0.796875 0.203125 1.4375 0.625q0.46875 -0.453125 0.9375 -0.453125q0.53125 0 0.859375 0.375q0.34375 0.359375 0.34375 1.21875l0 1.796875q0 0.875 -0.34375 1.25q-0.328125 0.359375 -0.859375 0.359375q-0.4375 0 -0.765625 -0.265625q-0.265625 -0.203125 -0.390625 -0.796875q-0.125 -0.609375 -0.328125 -0.859375q-0.34375 -0.453125 -1.03125 -0.75q-0.671875 -0.3125 -1.5625 -0.3125q-1.296875 0 -2.0625 0.609375q-0.75 0.609375 -0.75 1.265625q0 0.4375 0.3125 0.859375q0.3125 0.40625 0.90625 0.640625q0.40625 0.171875 2.25 0.53125q1.84375 0.359375 2.828125 0.796875q1.0 0.4375 1.65625 1.359375q0.65625 0.921875 0.65625 2.203125q0 1.78125 -1.265625 2.84375q-1.65625 1.421875 -4.234375 1.421875q-1.0 0 -1.953125 -0.25q-0.9375 -0.234375 -1.828125 -0.71875zm17.324219 -7.625l0 4.8125q0 0.765625 0.3125 1.015625q0.5 0.390625 1.765625 0.390625q1.84375 0 3.390625 -0.78125q0.609375 -0.3125 0.9375 -0.3125q0.46875 0 0.8125 0.359375q0.359375 0.34375 0.359375 0.84375q0 0.46875 -0.375 0.8125q-0.578125 0.546875 -2.28125 1.015625q-1.6875 0.46875 -2.84375 0.46875q-2.234375 0 -3.359375 -0.96875q-1.125 -0.96875 -1.125 -2.375l0 -5.28125l-0.859375 0q-0.875 0 -1.25 -0.328125q-0.359375 -0.34375 -0.359375 -0.890625q0 -0.515625 0.359375 -0.84375q0.375 -0.34375 1.25 -0.34375l0.859375 0l0 -2.171875q0 -0.859375 0.328125 -1.234375q0.34375 -0.375 0.890625 -0.375q0.515625 0 0.84375 0.375q0.34375 0.375 0.34375 1.234375l0 2.171875l4.4375 0q0.875 0 1.234375 0.34375q0.375 0.328125 0.375 0.859375q0 0.53125 -0.375 0.875q-0.359375 0.328125 -1.234375 0.328125l-4.4375 0zm17.152344 8.234375l0 -0.5625q-0.890625 0.484375 -1.984375 0.71875q-1.09375 0.25 -1.984375 0.25q-1.9375 0 -3.140625 -1.03125q-1.203125 -1.03125 -1.203125 -2.265625q0 -1.515625 1.53125 -2.8125q1.546875 -1.296875 4.265625 -1.296875q1.09375 0 2.515625 0.234375l0 -0.578125q0 -0.53125 -0.46875 -0.875q-0.453125 -0.34375 -1.75 -0.34375q-1.0625 0 -2.765625 0.421875q-0.640625 0.15625 -0.984375 0.15625q-0.484375 0 -0.828125 -0.34375q-0.328125 -0.34375 -0.328125 -0.890625q0 -0.296875 0.109375 -0.515625q0.125 -0.234375 0.328125 -0.359375q0.21875 -0.140625 0.890625 -0.328125q0.890625 -0.25 1.8125 -0.390625q0.9375 -0.140625 1.6875 -0.140625q2.234375 0 3.46875 0.96875q1.234375 0.953125 1.234375 2.640625l0 4.9375l0.40625 0q0.875 0 1.234375 0.34375q0.375 0.328125 0.375 0.859375q0 0.53125 -0.375 0.875q-0.359375 0.328125 -1.234375 0.328125l-2.8125 0zm0 -4.296875q-1.4375 -0.28125 -2.65625 -0.28125q-1.46875 0 -2.515625 0.703125q-0.65625 0.46875 -0.65625 0.9375q0 0.328125 0.3125 0.546875q0.59375 0.390625 1.609375 0.390625q0.859375 0 1.953125 -0.34375q1.109375 -0.34375 1.953125 -0.921875l0 -1.03125zm15.996094 -5.90625q0.421875 -0.421875 0.890625 -0.421875q0.515625 0 0.84375 0.375q0.328125 0.375 0.328125 1.21875l0 1.546875q0 0.875 -0.328125 1.234375q-0.328125 0.359375 -0.875 0.359375q-0.484375 0 -0.828125 -0.28125q-0.25 -0.203125 -0.390625 -0.84375q-0.140625 -0.65625 -0.671875 -0.984375q-0.953125 -0.5625 -2.4375 -0.5625q-1.6875 0 -2.71875 1.0q-1.03125 1.0 -1.03125 2.515625q0 1.40625 0.984375 2.234375q0.984375 0.8125 3.28125 0.8125q1.5 0 2.4375 -0.3125q0.5625 -0.1875 1.0625 -0.640625q0.515625 -0.453125 0.921875 -0.453125q0.5 0 0.84375 0.375q0.359375 0.359375 0.359375 0.84375q0 0.796875 -1.078125 1.515625q-1.625 1.078125 -4.734375 1.078125q-2.8125 0 -4.359375 -1.171875q-2.109375 -1.5625 -2.109375 -4.265625q0 -2.5625 1.703125 -4.234375q1.71875 -1.6875 4.46875 -1.6875q1.0 0 1.84375 0.1875q0.859375 0.1875 1.59375 0.5625zm8.683594 6.203125l0 4.0l-2.8125 0q-0.875 0 -1.25 -0.328125q-0.359375 -0.34375 -0.359375 -0.875q0 -0.53125 0.375 -0.859375q0.375 -0.34375 1.234375 -0.34375l0.40625 0l0 -10.390625l-0.40625 0q-0.875 0 -1.25 -0.328125q-0.359375 -0.34375 -0.359375 -0.875q0 -0.53125 0.359375 -0.859375q0.375 -0.34375 1.25 -0.34375l2.8125 0l0 8.09375l1.875 -1.5q-0.296875 -0.515625 -0.296875 -0.828125q0 -0.53125 0.359375 -0.859375q0.359375 -0.34375 1.234375 -0.34375l2.734375 0q0.875 0 1.234375 0.34375q0.375 0.328125 0.375 0.859375q0 0.53125 -0.375 0.875q-0.359375 0.328125 -1.234375 0.328125l-0.65625 0l-2.921875 2.359375l3.921875 3.46875l0.703125 0q0.875 0 1.234375 0.34375q0.375 0.328125 0.375 0.859375q0 0.53125 -0.375 0.875q-0.359375 0.328125 -1.234375 0.328125l-2.765625 0q-0.859375 0 -1.234375 -0.328125q-0.375 -0.34375 -0.375 -0.875q0 -0.46875 0.40625 -0.90625l-2.546875 -2.25l-0.4375 0.359375z" fill-rule="nonzero"/><path fill="#eeeeee" d="m421.75626 490.87674l99.71652 0l0 46.04727l-99.71652 0z" fill-rule="evenodd"/><path stroke="#000000" stroke-width="1.0" stroke-linejoin="round" stroke-linecap="butt" d="m421.75626 490.87674l99.71652 0l0 46.04727l-99.71652 0z" fill-rule="evenodd"/><path fill="#000000" d="m449.01297 510.6435l0 9.390625l5.171875 0l0 -2.265625q0 -0.875 0.328125 -1.234375q0.34375 -0.375 0.890625 -0.375q0.515625 0 0.84375 0.375q0.34375 0.359375 0.34375 1.234375l0 4.671875l-11.375 0q-0.875 0 -1.25 -0.328125q-0.359375 -0.34375 -0.359375 -0.875q0 -0.53125 0.359375 -0.859375q0.375 -0.34375 1.25 -0.34375l1.390625 0l0 -9.390625l-1.390625 0q-0.875 0 -1.25 -0.328125q-0.359375 -0.34375 -0.359375 -0.890625q0 -0.53125 0.359375 -0.859375q0.375 -0.34375 1.25 -0.34375l5.203125 0.015625q0.859375 0 1.234375 0.328125q0.375 0.328125 0.375 0.859375q0 0.546875 -0.375 0.890625q-0.375 0.328125 -1.234375 0.328125l-1.40625 0zm16.261719 -3.40625l0 2.546875l-2.859375 0l0 -2.546875l2.859375 0zm0.328125 4.5625l0 8.234375l2.890625 0q0.859375 0 1.21875 0.34375q0.375 0.328125 0.375 0.859375q0 0.53125 -0.375 0.875q-0.359375 0.328125 -1.21875 0.328125l-8.171875 0q-0.875 0 -1.25 -0.328125q-0.359375 -0.34375 -0.359375 -0.875q0 -0.53125 0.359375 -0.859375q0.375 -0.34375 1.25 -0.34375l2.875 0l0 -5.828125l-1.921875 0q-0.859375 0 -1.234375 -0.328125q-0.375 -0.34375 -0.375 -0.890625q0 -0.515625 0.359375 -0.84375q0.375 -0.34375 1.25 -0.34375l4.328125 0zm15.808594 2.8125q-0.578125 -0.359375 -1.234375 -0.546875q-0.640625 -0.1875 -1.34375 -0.1875q-1.390625 0 -2.21875 0.46875q-0.359375 0.1875 -0.359375 0.421875q0 0.28125 0.5 0.53125q0.375 0.1875 1.671875 0.359375q2.390625 0.328125 3.328125 0.65625q1.234375 0.4375 1.890625 1.296875q0.671875 0.859375 0.671875 1.796875q0 1.296875 -1.140625 2.15625q-1.625 1.265625 -4.21875 1.265625q-1.046875 0 -1.9375 -0.1875q-0.875 -0.171875 -1.625 -0.53125q-0.171875 0.15625 -0.375 0.234375q-0.1875 0.078125 -0.40625 0.078125q-0.5625 0 -0.90625 -0.359375q-0.328125 -0.375 -0.328125 -1.25l0 -0.796875q0 -0.875 0.328125 -1.234375q0.34375 -0.375 0.890625 -0.375q0.421875 0 0.71875 0.25q0.296875 0.234375 0.453125 0.8125q0.5625 0.46875 1.328125 0.71875q0.78125 0.234375 1.78125 0.234375q1.65625 0 2.5625 -0.515625q0.4375 -0.265625 0.4375 -0.546875q0 -0.46875 -0.625 -0.765625q-0.609375 -0.3125 -2.5625 -0.515625q-2.890625 -0.3125 -3.859375 -1.171875q-0.984375 -0.859375 -0.984375 -2.109375q0 -1.296875 1.09375 -2.140625q1.484375 -1.171875 3.875 -1.171875q0.828125 0 1.59375 0.15625q0.765625 0.15625 1.46875 0.484375q0.21875 -0.171875 0.40625 -0.25q0.203125 -0.078125 0.375 -0.078125q0.484375 0 0.8125 0.375q0.328125 0.359375 0.328125 1.234375l0 0.578125q0 0.78125 -0.1875 1.0625q-0.375 0.546875 -1.015625 0.546875q-0.4375 0 -0.765625 -0.265625q-0.328125 -0.28125 -0.421875 -0.71875zm11.214844 -0.40625l0 4.8125q0 0.765625 0.3125 1.015625q0.5 0.390625 1.765625 0.390625q1.84375 0 3.390625 -0.78125q0.609375 -0.3125 0.9375 -0.3125q0.46875 0 0.8125 0.359375q0.359375 0.34375 0.359375 0.84375q0 0.46875 -0.375 0.8125q-0.578125 0.546875 -2.28125 1.015625q-1.6875 0.46875 -2.84375 0.46875q-2.234375 0 -3.359375 -0.96875q-1.125 -0.96875 -1.125 -2.375l0 -5.28125l-0.859375 0q-0.875 0 -1.25 -0.328125q-0.359375 -0.34375 -0.359375 -0.890625q0 -0.515625 0.359375 -0.84375q0.375 -0.34375 1.25 -0.34375l0.859375 0l0 -2.171875q0 -0.859375 0.328125 -1.234375q0.34375 -0.375 0.890625 -0.375q0.515625 0 0.84375 0.375q0.34375 0.375 0.34375 1.234375l0 2.171875l4.4375 0q0.875 0 1.234375 0.34375q0.375 0.328125 0.375 0.859375q0 0.53125 -0.375 0.875q-0.359375 0.328125 -1.234375 0.328125l-4.4375 0z" fill-rule="nonzero"/><path fill="#eeeeee" d="m497.61823 556.75244l99.71655 0l0 46.04724l-99.71655 0z" fill-rule="evenodd"/><path stroke="#000000" stroke-width="1.0" stroke-linejoin="round" stroke-linecap="butt" d="m497.61823 556.75244l99.71655 0l0 46.04724l-99.71655 0z" fill-rule="evenodd"/><path fill="#000000" d="m522.87494 578.6442l0 7.265625l0.859375 0q0.875 0 1.234375 0.34375q0.375 0.328125 0.375 0.859375q0 0.53125 -0.375 0.875q-0.359375 0.328125 -1.234375 0.328125l-3.15625 0q-0.859375 0 -1.234375 -0.328125q-0.359375 -0.34375 -0.359375 -0.875q0 -0.515625 0.359375 -0.859375q0.359375 -0.34375 1.125 -0.34375l0 -9.390625l-0.375 0q-0.875 0 -1.25 -0.328125q-0.359375 -0.34375 -0.359375 -0.890625q0 -0.53125 0.359375 -0.859375q0.375 -0.34375 1.25 -0.34375l2.78125 0.015625l6.140625 9.625l0 -7.21875l-0.875 0q-0.859375 0 -1.234375 -0.328125q-0.375 -0.34375 -0.375 -0.890625q0 -0.53125 0.375 -0.859375q0.375 -0.34375 1.234375 -0.34375l3.15625 0.015625q0.859375 0 1.234375 0.328125q0.375 0.328125 0.375 0.859375q0 0.53125 -0.375 0.875q-0.359375 0.34375 -1.109375 0.34375l0 11.796875l-2.375 0l-6.171875 -9.671875zm23.636719 4.546875q0 1.390625 -0.765625 2.6875q-0.765625 1.28125 -2.28125 2.0625q-1.515625 0.765625 -3.171875 0.765625q-1.640625 0 -3.140625 -0.75q-1.5 -0.765625 -2.28125 -2.0625q-0.78125 -1.3125 -0.78125 -2.71875q0 -1.453125 0.796875 -2.828125q0.796875 -1.390625 2.28125 -2.1875q1.5 -0.796875 3.125 -0.796875q1.640625 0 3.15625 0.8125q1.515625 0.8125 2.28125 2.1875q0.78125 1.375 0.78125 2.828125zm-2.390625 0.015625q0 -1.15625 -0.84375 -2.140625q-1.125 -1.3125 -2.984375 -1.3125q-1.625 0 -2.71875 1.046875q-1.09375 1.046875 -1.09375 2.421875q0 1.125 1.09375 2.109375q1.109375 0.96875 2.71875 0.96875q1.625 0 2.71875 -0.96875q1.109375 -0.984375 1.109375 -2.125zm16.074219 -10.09375l0 12.796875l0.40625 0q0.859375 0 1.234375 0.34375q0.375 0.328125 0.375 0.859375q0 0.53125 -0.375 0.875q-0.359375 0.328125 -1.234375 0.328125l-2.8125 0l0 -0.59375q-0.8125 0.484375 -1.71875 0.734375q-0.890625 0.25 -1.859375 0.25q-2.703125 0 -4.359375 -1.5625q-1.640625 -1.578125 -1.640625 -3.90625q0 -2.4375 1.734375 -4.15625q1.734375 -1.71875 4.21875 -1.71875q0.9375 0 1.84375 0.28125q0.90625 0.28125 1.78125 0.859375l0 -2.984375l-0.40625 0q-0.875 0 -1.25 -0.328125q-0.359375 -0.34375 -0.359375 -0.875q0 -0.53125 0.359375 -0.859375q0.375 -0.34375 1.25 -0.34375l2.8125 0zm-2.40625 10.203125q0 -1.5 -1.046875 -2.53125q-1.03125 -1.03125 -2.546875 -1.03125q-1.5 0 -2.546875 1.03125q-1.046875 1.03125 -1.046875 2.484375q0 1.328125 0.9375 2.1875q0.9375 0.84375 2.65625 0.84375q1.703125 0 2.640625 -0.84375q0.953125 -0.859375 0.953125 -2.140625zm17.324219 0.890625l-9.859375 0q0.375 0.9375 1.328125 1.515625q0.953125 0.578125 2.59375 0.578125q1.328125 0 3.546875 -0.578125q0.90625 -0.234375 1.265625 -0.234375q0.484375 0 0.8125 0.34375q0.328125 0.34375 0.328125 0.859375q0 0.46875 -0.359375 0.796875q-0.46875 0.421875 -2.28125 0.828125q-1.8125 0.390625 -3.5 0.390625q-2.875 0 -4.609375 -1.625q-1.71875 -1.640625 -1.71875 -4.015625q0 -2.53125 1.859375 -4.109375q1.875 -1.59375 4.3125 -1.59375q1.46875 0 2.6875 0.515625q1.21875 0.515625 1.828125 1.109375q0.84375 0.859375 1.390625 2.140625q0.375 0.890625 0.375 2.0625l0 1.015625zm-2.65625 -2.390625q-0.5625 -1.03125 -1.453125 -1.546875q-0.890625 -0.515625 -2.109375 -0.515625q-1.21875 0 -2.109375 0.515625q-0.890625 0.515625 -1.453125 1.546875l7.125 0z" fill-rule="nonzero"/><path fill="#eeeeee" d="m882.0693 885.62933l117.921265 0l0 46.04724l-117.921265 0z" fill-rule="evenodd"/><path stroke="#000000" stroke-width="1.0" stroke-linejoin="round" stroke-linecap="butt" d="m882.0693 885.62933l117.921265 0l0 46.04724l-117.921265 0z" fill-rule="evenodd"/><path fill="#000000" d="m918.27405 912.8023l0 3.21875q-1.625 0.875 -2.765625 1.203125q-1.140625 0.328125 -2.46875 0.328125q-1.84375 0 -3.40625 -0.5625q-1.234375 -0.421875 -1.953125 -1.0625q-0.703125 -0.640625 -1.296875 -1.90625q-0.59375 -1.265625 -0.59375 -2.8125l0 -1.734375q0 -2.40625 1.46875 -4.296875q1.96875 -2.546875 5.34375 -2.546875q0.984375 0 1.875 0.203125q0.890625 0.1875 1.6875 0.59375q0.46875 -0.4375 0.9375 -0.4375q0.515625 0 0.84375 0.359375q0.328125 0.359375 0.328125 1.234375l0 1.5625q0 0.859375 -0.328125 1.234375q-0.328125 0.359375 -0.859375 0.359375q-0.421875 0 -0.734375 -0.25q-0.234375 -0.171875 -0.390625 -0.78125q-0.15625 -0.609375 -0.359375 -0.8125q-0.3125 -0.34375 -1.125 -0.609375q-0.796875 -0.265625 -1.78125 -0.265625q-1.4375 0 -2.484375 0.59375q-0.75 0.4375 -1.390625 1.515625q-0.625 1.078125 -0.625 2.34375l0 1.734375q0 1.921875 1.109375 2.9375q1.125 1.0 3.5625 1.0q1.65625 0 3.015625 -0.625l0 -1.71875l-2.453125 0q-0.875 0 -1.25 -0.328125q-0.359375 -0.34375 -0.359375 -0.890625q0 -0.53125 0.359375 -0.859375q0.375 -0.34375 1.25 -0.34375l4.265625 0.015625q0.859375 0 1.234375 0.328125q0.375 0.328125 0.375 0.859375q0 0.421875 -0.265625 0.75q-0.25 0.3125 -0.765625 0.46875zm7.8554688 -6.25l0 1.5q1.515625 -1.09375 2.390625 -1.453125q0.875 -0.359375 1.625 -0.359375q1.171875 0 2.28125 0.859375q0.75 0.59375 0.75 1.203125q0 0.515625 -0.359375 0.875q-0.359375 0.34375 -0.859375 0.34375q-0.453125 0 -0.953125 -0.4375q-0.484375 -0.453125 -0.859375 -0.453125q-0.515625 0 -1.515625 0.640625q-1.0 0.625 -2.5 1.890625l0 3.625l3.421875 0q0.875 0 1.234375 0.34375q0.375 0.328125 0.375 0.859375q0 0.53125 -0.375 0.875q-0.359375 0.328125 -1.234375 0.328125l-7.25 0q-0.875 0 -1.25 -0.328125q-0.359375 -0.34375 -0.359375 -0.875q0 -0.53125 0.359375 -0.859375q0.375 -0.34375 1.25 -0.34375l1.421875 0l0 -5.828125l-0.859375 0q-0.875 0 -1.25 -0.328125q-0.359375 -0.34375 -0.359375 -0.890625q0 -0.515625 0.359375 -0.84375q0.375 -0.34375 1.25 -0.34375l3.265625 0zm17.058594 10.640625l0 -0.5625q-0.890625 0.484375 -1.984375 0.71875q-1.09375 0.25 -1.984375 0.25q-1.9375 0 -3.140625 -1.03125q-1.203125 -1.03125 -1.203125 -2.265625q0 -1.515625 1.53125 -2.8125q1.546875 -1.296875 4.265625 -1.296875q1.09375 0 2.515625 0.234375l0 -0.578125q0 -0.53125 -0.46875 -0.875q-0.453125 -0.34375 -1.75 -0.34375q-1.0625 0 -2.765625 0.421875q-0.640625 0.15625 -0.984375 0.15625q-0.484375 0 -0.828125 -0.34375q-0.328125 -0.34375 -0.328125 -0.890625q0 -0.296875 0.109375 -0.515625q0.125 -0.234375 0.328125 -0.359375q0.21875 -0.140625 0.890625 -0.328125q0.890625 -0.25 1.8125 -0.390625q0.9375 -0.140625 1.6875 -0.140625q2.234375 0 3.46875 0.96875q1.234375 0.953125 1.234375 2.640625l0 4.9375l0.40625 0q0.875 0 1.234375 0.34375q0.375 0.328125 0.375 0.859375q0 0.53125 -0.375 0.875q-0.359375 0.328125 -1.234375 0.328125l-2.8125 0zm0 -4.296875q-1.4375 -0.28125 -2.65625 -0.28125q-1.46875 0 -2.515625 0.703125q-0.65625 0.46875 -0.65625 0.9375q0 0.328125 0.3125 0.546875q0.59375 0.390625 1.609375 0.390625q0.859375 0 1.953125 -0.34375q1.109375 -0.34375 1.953125 -0.921875l0 -1.03125zm9.261719 2.96875l0 3.9375l1.4375 0q0.875 0 1.234375 0.328125q0.375 0.34375 0.375 0.890625q0 0.515625 -0.375 0.84375q-0.359375 0.34375 -1.234375 0.34375l-4.25 0q-0.859375 0 -1.234375 -0.34375q-0.375 -0.328125 -0.375 -0.84375q0 -0.546875 0.375 -0.890625q0.375 -0.328125 1.234375 -0.328125l0.40625 0l0 -10.84375l-0.40625 0q-0.859375 0 -1.234375 -0.328125q-0.375 -0.34375 -0.375 -0.890625q0 -0.515625 0.375 -0.84375q0.375 -0.34375 1.234375 -0.34375l2.8125 0l0 0.8125q0.84375 -0.5625 1.75 -0.84375q0.90625 -0.28125 1.84375 -0.28125q2.46875 0 4.203125 1.671875q1.734375 1.65625 1.734375 3.8125q0 2.390625 -2.046875 3.9375q-1.71875 1.28125 -3.859375 1.28125q-0.921875 0 -1.828125 -0.265625q-0.90625 -0.265625 -1.796875 -0.8125zm7.125 -4.125q0 -0.5 -0.40625 -1.28125q-0.390625 -0.78125 -1.21875 -1.296875q-0.828125 -0.53125 -1.9375 -0.53125q-1.796875 0 -2.84375 1.359375q-0.71875 0.921875 -0.71875 1.78125q0 0.953125 1.015625 1.859375q1.03125 0.90625 2.546875 0.90625q1.53125 0 2.546875 -0.890625q1.015625 -0.90625 1.015625 -1.90625zm7.7773438 -9.75l0 5.125q0.75 -0.453125 1.515625 -0.65625q0.78125 -0.21875 1.5625 -0.21875q1.234375 0 2.203125 0.421875q0.984375 0.421875 1.625 1.328125q0.640625 0.90625 0.640625 2.28125l0 4.515625q0.90625 0 1.1875 0.171875q0.5625 0.375 0.5625 1.03125q0 0.53125 -0.359375 0.875q-0.359375 0.328125 -1.234375 0.328125l-2.734375 0q-0.859375 0 -1.234375 -0.328125q-0.359375 -0.34375 -0.359375 -0.875q0 -0.65625 0.5625 -1.03125q0.28125 -0.1875 1.1875 -0.171875l0 -4.34375q0 -0.921875 -0.421875 -1.296875q-0.546875 -0.515625 -1.625 -0.515625q-0.796875 0 -1.421875 0.3125q-0.609375 0.3125 -1.65625 1.34375l0 4.5q0.9375 0 1.203125 0.171875q0.578125 0.375 0.578125 1.03125q0 0.53125 -0.375 0.875q-0.375 0.328125 -1.234375 0.328125l-2.734375 0q-0.859375 0 -1.234375 -0.328125q-0.375 -0.34375 -0.375 -0.875q0 -0.65625 0.578125 -1.03125q0.28125 -0.1875 1.203125 -0.171875l0 -10.390625l-0.421875 0q-0.859375 0 -1.234375 -0.328125q-0.359375 -0.34375 -0.359375 -0.875q0 -0.53125 0.359375 -0.859375q0.375 -0.34375 1.234375 -0.34375l2.8125 0z" fill-rule="nonzero"/><path fill="#eeeeee" d="m713.4589 747.26715l117.921265 0l0 46.04724l-117.921265 0z" fill-rule="evenodd"/><path stroke="#000000" stroke-width="1.0" stroke-linejoin="round" stroke-linecap="butt" d="m713.4589 747.26715l117.921265 0l0 46.04724l-117.921265 0z" fill-rule="evenodd"/><path fill="#000000" d="m744.1793 779.1589l-0.078125 0.109375q1.25 0 2.328125 0.5q0.453125 0.21875 0.75 0.21875q0.421875 0 1.03125 -0.40625q0.609375 -0.390625 0.953125 -0.390625q0.5 0 0.84375 0.34375q0.359375 0.34375 0.359375 0.859375q0 0.625 -0.65625 1.078125q-1.265625 0.90625 -2.5625 0.90625q-0.65625 0 -1.328125 -0.25q-1.078125 -0.421875 -1.703125 -0.421875q-1.015625 0 -3.109375 0.53125q-0.4375 0.09375 -0.671875 0.09375q-0.46875 0 -0.8125 -0.359375q-0.34375 -0.34375 -0.34375 -0.890625q0 -0.46875 0.46875 -0.921875l1.53125 -1.5q-1.890625 -0.8125 -3.09375 -2.65625q-1.203125 -1.859375 -1.203125 -4.28125q0 -3.484375 2.40625 -5.6875q1.921875 -1.765625 4.328125 -1.765625q2.40625 0 4.328125 1.765625q2.40625 2.203125 2.40625 5.6875q0 3.0 -1.828125 5.09375q-1.8125 2.09375 -4.34375 2.34375zm3.765625 -7.4375q0 -2.1875 -1.328125 -3.625q-1.3125 -1.4375 -3.0 -1.4375q-1.6875 0 -3.015625 1.453125q-1.3125 1.4375 -1.3125 3.609375q0 2.1875 1.3125 3.625q1.328125 1.4375 3.015625 1.4375q1.6875 0 3.0 -1.421875q1.328125 -1.4375 1.328125 -3.640625zm15.183594 -3.53125l0 8.234375q0.75 0 1.109375 0.34375q0.375 0.34375 0.375 0.859375q0 0.53125 -0.375 0.875q-0.359375 0.328125 -1.234375 0.328125l-2.28125 0l0 -0.546875q-1.03125 0.46875 -1.96875 0.703125q-0.9375 0.234375 -1.78125 0.234375q-1.1875 0 -2.0625 -0.5q-0.859375 -0.5 -1.359375 -1.375q-0.359375 -0.640625 -0.359375 -1.59375l0 -5.15625l-0.421875 0q-0.859375 0 -1.234375 -0.328125q-0.359375 -0.34375 -0.359375 -0.890625q0 -0.515625 0.359375 -0.84375q0.375 -0.34375 1.234375 -0.34375l2.8125 0l0 7.140625q0 0.765625 0.375 1.125q0.375 0.359375 1.125 0.359375q0.734375 0 1.5625 -0.28125q0.84375 -0.296875 2.078125 -1.046875l0 -4.890625l-0.875 0q-0.859375 0 -1.234375 -0.328125q-0.359375 -0.34375 -0.359375 -0.890625q0 -0.515625 0.359375 -0.84375q0.375 -0.34375 1.234375 -0.34375l3.28125 0zm15.324219 6.53125l-9.859375 0q0.375 0.9375 1.328125 1.515625q0.953125 0.578125 2.59375 0.578125q1.328125 0 3.546875 -0.578125q0.90625 -0.234375 1.265625 -0.234375q0.484375 0 0.8125 0.34375q0.328125 0.34375 0.328125 0.859375q0 0.46875 -0.359375 0.796875q-0.46875 0.421875 -2.28125 0.828125q-1.8125 0.390625 -3.5 0.390625q-2.875 0 -4.609375 -1.625q-1.71875 -1.640625 -1.71875 -4.015625q0 -2.53125 1.859375 -4.109375q1.875 -1.59375 4.3125 -1.59375q1.46875 0 2.6875 0.515625q1.21875 0.515625 1.828125 1.109375q0.84375 0.859375 1.390625 2.140625q0.375 0.890625 0.375 2.0625l0 1.015625zm-2.65625 -2.390625q-0.5625 -1.03125 -1.453125 -1.546875q-0.890625 -0.515625 -2.109375 -0.515625q-1.21875 0 -2.109375 0.515625q-0.890625 0.515625 -1.453125 1.546875l7.125 0zm16.136719 -4.140625l0 8.234375q0.75 0 1.109375 0.34375q0.375 0.34375 0.375 0.859375q0 0.53125 -0.375 0.875q-0.359375 0.328125 -1.234375 0.328125l-2.28125 0l0 -0.546875q-1.03125 0.46875 -1.96875 0.703125q-0.9375 0.234375 -1.78125 0.234375q-1.1875 0 -2.0625 -0.5q-0.859375 -0.5 -1.359375 -1.375q-0.359375 -0.640625 -0.359375 -1.59375l0 -5.15625l-0.421875 0q-0.859375 0 -1.234375 -0.328125q-0.359375 -0.34375 -0.359375 -0.890625q0 -0.515625 0.359375 -0.84375q0.375 -0.34375 1.234375 -0.34375l2.8125 0l0 7.140625q0 0.765625 0.375 1.125q0.375 0.359375 1.125 0.359375q0.734375 0 1.5625 -0.28125q0.84375 -0.296875 2.078125 -1.046875l0 -4.890625l-0.875 0q-0.859375 0 -1.234375 -0.328125q-0.359375 -0.34375 -0.359375 -0.890625q0 -0.515625 0.359375 -0.84375q0.375 -0.34375 1.234375 -0.34375l3.28125 0zm15.324219 6.53125l-9.859375 0q0.375 0.9375 1.328125 1.515625q0.953125 0.578125 2.59375 0.578125q1.328125 0 3.546875 -0.578125q0.90625 -0.234375 1.265625 -0.234375q0.484375 0 0.8125 0.34375q0.328125 0.34375 0.328125 0.859375q0 0.46875 -0.359375 0.796875q-0.46875 0.421875 -2.28125 0.828125q-1.8125 0.390625 -3.5 0.390625q-2.875 0 -4.609375 -1.625q-1.71875 -1.640625 -1.71875 -4.015625q0 -2.53125 1.859375 -4.109375q1.875 -1.59375 4.3125 -1.59375q1.46875 0 2.6875 0.515625q1.21875 0.515625 1.828125 1.109375q0.84375 0.859375 1.390625 2.140625q0.375 0.890625 0.375 2.0625l0 1.015625zm-2.65625 -2.390625q-0.5625 -1.03125 -1.453125 -1.546875q-0.890625 -0.515625 -2.109375 -0.515625q-1.21875 0 -2.109375 0.515625q-0.890625 0.515625 -1.453125 1.546875l7.125 0z" fill-rule="nonzero"/><path fill="#000000" fill-opacity="0.0" d="m140.61154 135.58235l0 11.487656l0.06298828 0l0 11.472977" fill-rule="evenodd"/><path stroke="#000000" stroke-width="2.0" stroke-linejoin="round" stroke-linecap="butt" d="m140.61154 135.58235l0 11.487671l0.06298828 0l0 4.6187744" fill-rule="evenodd"/><path fill="#000000" stroke="#000000" stroke-width="2.0" stroke-linecap="butt" d="m140.67453 151.68881l-2.2491608 -2.249176l2.2491608 6.179535l2.2491608 -6.179535z" fill-rule="evenodd"/><path fill="#000000" fill-opacity="0.0" d="m232.28487 269.6334l0 45.543304l24.34645 0" fill-rule="evenodd"/><path stroke="#000000" stroke-width="2.0" stroke-linejoin="round" stroke-linecap="butt" d="m232.28487 269.6334l0 45.543304l17.49228 0" fill-rule="evenodd"/><path fill="#000000" stroke="#000000" stroke-width="2.0" stroke-linecap="butt" d="m249.77715 315.1767l-2.249176 2.249176l6.179535 -2.249176l-6.179535 -2.249176z" fill-rule="evenodd"/><path fill="#000000" fill-opacity="0.0" d="m306.48193 338.20935l0 109.82675l26.204712 0" fill-rule="evenodd"/><path stroke="#000000" stroke-width="2.0" stroke-linejoin="round" stroke-linecap="butt" d="m306.4819 338.20935l0 109.82678l19.350555 0" fill-rule="evenodd"/><path fill="#000000" stroke="#000000" stroke-width="2.0" stroke-linecap="butt" d="m325.83246 448.03613l-2.2491455 2.249176l6.179535 -2.249176l-6.179535 -2.249176z" fill-rule="evenodd"/><path fill="#000000" fill-opacity="0.0" d="m547.4765 602.7997l0 42.834656l27.747986 0" fill-rule="evenodd"/><path stroke="#000000" stroke-width="2.0" stroke-linejoin="round" stroke-linecap="butt" d="m547.4765 602.7997l0 42.834656l20.89386 0" fill-rule="evenodd"/><path fill="#000000" stroke="#000000" stroke-width="2.0" stroke-linecap="butt" d="m568.37036 645.63434l-2.2491455 2.2492065l6.1795044 -2.2492065l-6.1795044 -2.2491455z" fill-rule="evenodd"/><path fill="#000000" fill-opacity="0.0" d="m471.61453 536.924l0 42.86615l26.015747 0" fill-rule="evenodd"/><path stroke="#000000" stroke-width="2.0" stroke-linejoin="round" stroke-linecap="butt" d="m471.61453 536.924l0 42.86615l19.16159 0" fill-rule="evenodd"/><path fill="#000000" stroke="#000000" stroke-width="2.0" stroke-linecap="butt" d="m490.77612 579.79016l-2.249176 2.2491455l6.179535 -2.2491455l-6.179535 -2.2492065z" fill-rule="evenodd"/><path fill="#eeeeee" d="m882.0693 823.2369l99.71649 0l0 46.04724l-99.71649 0z" fill-rule="evenodd"/><path stroke="#000000" stroke-width="1.0" stroke-linejoin="round" stroke-linecap="butt" d="m882.0693 823.2369l99.71649 0l0 46.04724l-99.71649 0z" fill-rule="evenodd"/><path fill="#000000" d="m907.326 845.1286l0 7.265625l0.859375 0q0.875 0 1.234375 0.34375q0.375 0.328125 0.375 0.859375q0 0.53125 -0.375 0.875q-0.359375 0.328125 -1.234375 0.328125l-3.15625 0q-0.859375 0 -1.234375 -0.328125q-0.359375 -0.34375 -0.359375 -0.875q0 -0.515625 0.359375 -0.859375q0.359375 -0.34375 1.125 -0.34375l0 -9.390625l-0.375 0q-0.875 0 -1.25 -0.328125q-0.359375 -0.34375 -0.359375 -0.890625q0 -0.53125 0.359375 -0.859375q0.375 -0.34375 1.25 -0.34375l2.78125 0.015625l6.140625 9.625l0 -7.21875l-0.875 0q-0.859375 0 -1.234375 -0.328125q-0.375 -0.34375 -0.375 -0.890625q0 -0.53125 0.375 -0.859375q0.375 -0.34375 1.234375 -0.34375l3.15625 0.015625q0.859375 0 1.234375 0.328125q0.375 0.328125 0.375 0.859375q0 0.53125 -0.375 0.875q-0.359375 0.34375 -1.109375 0.34375l0 11.796875l-2.375 0l-6.171875 -9.671875zm23.636719 4.546875q0 1.390625 -0.765625 2.6875q-0.765625 1.28125 -2.28125 2.0625q-1.515625 0.765625 -3.171875 0.765625q-1.640625 0 -3.140625 -0.75q-1.5 -0.765625 -2.28125 -2.0625q-0.78125 -1.3125 -0.78125 -2.71875q0 -1.453125 0.796875 -2.828125q0.796875 -1.390625 2.28125 -2.1875q1.5 -0.796875 3.125 -0.796875q1.640625 0 3.15625 0.8125q1.515625 0.8125 2.28125 2.1875q0.78125 1.375 0.78125 2.828125zm-2.390625 0.015625q0 -1.15625 -0.84375 -2.140625q-1.125 -1.3125 -2.984375 -1.3125q-1.625 0 -2.71875 1.046875q-1.09375 1.046875 -1.09375 2.421875q0 1.125 1.09375 2.109375q1.109375 0.96875 2.71875 0.96875q1.625 0 2.71875 -0.96875q1.109375 -0.984375 1.109375 -2.125zm16.074219 -10.09375l0 12.796875l0.40625 0q0.859375 0 1.234375 0.34375q0.375 0.328125 0.375 0.859375q0 0.53125 -0.375 0.875q-0.359375 0.328125 -1.234375 0.328125l-2.8125 0l0 -0.59375q-0.8125 0.484375 -1.71875 0.734375q-0.890625 0.25 -1.859375 0.25q-2.703125 0 -4.359375 -1.5625q-1.640625 -1.578125 -1.640625 -3.90625q0 -2.4375 1.734375 -4.15625q1.734375 -1.71875 4.21875 -1.71875q0.9375 0 1.84375 0.28125q0.90625 0.28125 1.78125 0.859375l0 -2.984375l-0.40625 0q-0.875 0 -1.25 -0.328125q-0.359375 -0.34375 -0.359375 -0.875q0 -0.53125 0.359375 -0.859375q0.375 -0.34375 1.25 -0.34375l2.8125 0zm-2.40625 10.203125q0 -1.5 -1.046875 -2.53125q-1.03125 -1.03125 -2.546875 -1.03125q-1.5 0 -2.546875 1.03125q-1.046875 1.03125 -1.046875 2.484375q0 1.328125 0.9375 2.1875q0.9375 0.84375 2.65625 0.84375q1.703125 0 2.640625 -0.84375q0.953125 -0.859375 0.953125 -2.140625zm17.324219 0.890625l-9.859375 0q0.375 0.9375 1.328125 1.515625q0.953125 0.578125 2.59375 0.578125q1.328125 0 3.546875 -0.578125q0.90625 -0.234375 1.265625 -0.234375q0.484375 0 0.8125 0.34375q0.328125 0.34375 0.328125 0.859375q0 0.46875 -0.359375 0.796875q-0.46875 0.421875 -2.28125 0.828125q-1.8125 0.390625 -3.5 0.390625q-2.875 0 -4.609375 -1.625q-1.71875 -1.640625 -1.71875 -4.015625q0 -2.53125 1.859375 -4.109375q1.875 -1.59375 4.3125 -1.59375q1.46875 0 2.6875 0.515625q1.21875 0.515625 1.828125 1.109375q0.84375 0.859375 1.390625 2.140625q0.375 0.890625 0.375 2.0625l0 1.015625zm-2.65625 -2.390625q-0.5625 -1.03125 -1.453125 -1.546875q-0.890625 -0.515625 -2.109375 -0.515625q-1.21875 0 -2.109375 0.515625q-0.890625 0.515625 -1.453125 1.546875l7.125 0z" fill-rule="nonzero"/><path fill="#000000" fill-opacity="0.0" d="m683.7931 668.6636l0 39.30713l29.669312 0" fill-rule="evenodd"/><path stroke="#000000" stroke-width="2.0" stroke-linejoin="round" stroke-linecap="butt" d="m683.7931 668.6636l0 39.30713l22.815186 0" fill-rule="evenodd"/><path fill="#000000" stroke="#000000" stroke-width="2.0" stroke-linecap="butt" d="m706.6083 707.9707l-2.2492065 2.2492065l6.1795654 -2.2492065l-6.1795654 -2.2491455z" fill-rule="evenodd"/><path fill="#000000" fill-opacity="0.0" d="m683.7931 668.6636l0 101.63782l29.669312 0" fill-rule="evenodd"/><path stroke="#000000" stroke-width="2.0" stroke-linejoin="round" stroke-linecap="butt" d="m683.7931 668.6636l0 101.63788l22.815186 0" fill-rule="evenodd"/><path fill="#000000" stroke="#000000" stroke-width="2.0" stroke-linecap="butt" d="m706.6083 770.30145l-2.2492065 2.2491455l6.1795654 -2.2491455l-6.1795654 -2.2492065z" fill-rule="evenodd"/><path fill="#000000" fill-opacity="0.0" d="m831.3802 707.9663l25.342163 0l0 138.2992l25.335022 0" fill-rule="evenodd"/><path stroke="#000000" stroke-width="2.0" stroke-linejoin="round" stroke-linecap="butt" d="m831.3802 707.9663l25.342163 0l0 138.2992l18.480835 0" fill-rule="evenodd"/><path fill="#000000" stroke="#000000" stroke-width="2.0" stroke-linecap="butt" d="m875.2032 846.2655l-2.2492065 2.2491455l6.1795654 -2.2491455l-6.1795654 -2.2491455z" fill-rule="evenodd"/><path fill="#000000" fill-opacity="0.0" d="m831.3802 770.2908l25.342163 0l0 138.36218l25.335022 0" fill-rule="evenodd"/><path stroke="#000000" stroke-width="2.0" stroke-linejoin="round" stroke-linecap="butt" d="m831.3802 770.2908l25.342163 0l0 138.36218l18.480835 0" fill-rule="evenodd"/><path fill="#000000" stroke="#000000" stroke-width="2.0" stroke-linecap="butt" d="m875.2032 908.65295l-2.2492065 2.2492065l6.1795654 -2.2492065l-6.1795654 -2.2491455z" fill-rule="evenodd"/><path fill="#eeeeee" d="m81.68241 158.55774l117.92126 0l0 46.04724l-117.92126 0z" fill-rule="evenodd"/><path stroke="#000000" stroke-width="1.0" stroke-linejoin="round" stroke-linecap="butt" d="m81.68241 158.55774l117.92126 0l0 46.04724l-117.92126 0z" fill-rule="evenodd"/><path fill="#000000" d="m106.93405 187.71512l0 -9.390625l-0.375 0q-0.859375 0 -1.234375 -0.328125q-0.375 -0.34375 -0.375 -0.890625q0 -0.53125 0.375 -0.859375q0.375 -0.34375 1.234375 -0.34375l6.03125 0q2.15625 0 3.46875 1.203125q1.3125 1.203125 1.3125 2.859375q0 0.78125 -0.3125 1.46875q-0.296875 0.6875 -0.921875 1.28125q1.140625 0.671875 1.703125 1.59375q0.5625 0.90625 0.5625 2.046875q0 0.921875 -0.40625 1.703125q-0.296875 0.59375 -0.75 0.953125q-0.59375 0.484375 -1.46875 0.796875q-0.859375 0.3125 -2.15625 0.3125l-7.0625 0q-0.859375 0 -1.234375 -0.328125q-0.375 -0.34375 -0.375 -0.875q0 -0.53125 0.375 -0.859375q0.375 -0.34375 1.234375 -0.34375l0.375 0zm2.40625 -5.90625l2.640625 0q1.40625 0 2.34375 -0.71875q0.640625 -0.46875 0.640625 -1.1875q0 -0.640625 -0.609375 -1.109375q-0.59375 -0.46875 -1.890625 -0.46875l-3.125 0l0 3.484375zm0 5.90625l4.140625 0q1.46875 0 2.0625 -0.4375q0.46875 -0.328125 0.46875 -0.9375q0 -0.71875 -0.90625 -1.421875q-0.90625 -0.703125 -2.59375 -0.703125l-3.171875 0l0 3.5zm19.058594 2.40625l0 -0.5625q-0.890625 0.484375 -1.984375 0.71875q-1.09375 0.25 -1.984375 0.25q-1.9375 0 -3.140625 -1.03125q-1.203125 -1.03125 -1.203125 -2.265625q0 -1.515625 1.53125 -2.8125q1.546875 -1.296875 4.265625 -1.296875q1.09375 0 2.515625 0.234375l0 -0.578125q0 -0.53125 -0.46875 -0.875q-0.453125 -0.34375 -1.75 -0.34375q-1.0625 0 -2.765625 0.421875q-0.640625 0.15625 -0.984375 0.15625q-0.484375 0 -0.828125 -0.34375q-0.328125 -0.34375 -0.328125 -0.890625q0 -0.296875 0.109375 -0.515625q0.125 -0.234375 0.328125 -0.359375q0.21875 -0.140625 0.890625 -0.328125q0.890625 -0.25 1.8125 -0.390625q0.9375 -0.140625 1.6875 -0.140625q2.234375 0 3.46875 0.96875q1.234375 0.953125 1.234375 2.640625l0 4.9375l0.40625 0q0.875 0 1.234375 0.34375q0.375 0.328125 0.375 0.859375q0 0.53125 -0.375 0.875q-0.359375 0.328125 -1.234375 0.328125l-2.8125 0zm0 -4.296875q-1.4375 -0.28125 -2.65625 -0.28125q-1.46875 0 -2.515625 0.703125q-0.65625 0.46875 -0.65625 0.9375q0 0.328125 0.3125 0.546875q0.59375 0.390625 1.609375 0.390625q0.859375 0 1.953125 -0.34375q1.109375 -0.34375 1.953125 -0.921875l0 -1.03125zm14.839844 -3.53125q-0.578125 -0.359375 -1.234375 -0.546875q-0.640625 -0.1875 -1.34375 -0.1875q-1.390625 0 -2.21875 0.46875q-0.359375 0.1875 -0.359375 0.421875q0 0.28125 0.5 0.53125q0.375 0.1875 1.671875 0.359375q2.390625 0.328125 3.328125 0.65625q1.234375 0.4375 1.890625 1.296875q0.671875 0.859375 0.671875 1.796875q0 1.296875 -1.140625 2.15625q-1.625 1.265625 -4.21875 1.265625q-1.046875 0 -1.9375 -0.1875q-0.875 -0.171875 -1.625 -0.53125q-0.171875 0.15625 -0.375 0.234375q-0.1875 0.078125 -0.40625 0.078125q-0.5625 0 -0.90625 -0.359375q-0.328125 -0.375 -0.328125 -1.25l0 -0.796875q0 -0.875 0.328125 -1.234375q0.34375 -0.375 0.890625 -0.375q0.421875 0 0.71875 0.25q0.296875 0.234375 0.453125 0.8125q0.5625 0.46875 1.328125 0.71875q0.78125 0.234375 1.78125 0.234375q1.65625 0 2.5625 -0.515625q0.4375 -0.265625 0.4375 -0.546875q0 -0.46875 -0.625 -0.765625q-0.609375 -0.3125 -2.5625 -0.515625q-2.890625 -0.3125 -3.859375 -1.171875q-0.984375 -0.859375 -0.984375 -2.109375q0 -1.296875 1.09375 -2.140625q1.484375 -1.171875 3.875 -1.171875q0.828125 0 1.59375 0.15625q0.765625 0.15625 1.46875 0.484375q0.21875 -0.171875 0.40625 -0.25q0.203125 -0.078125 0.375 -0.078125q0.484375 0 0.8125 0.375q0.328125 0.359375 0.328125 1.234375l0 0.578125q0 0.78125 -0.1875 1.0625q-0.375 0.546875 -1.015625 0.546875q-0.4375 0 -0.765625 -0.265625q-0.328125 -0.28125 -0.421875 -0.71875zm12.667969 -7.375l0 2.546875l-2.859375 0l0 -2.546875l2.859375 0zm0.328125 4.5625l0 8.234375l2.890625 0q0.859375 0 1.21875 0.34375q0.375 0.328125 0.375 0.859375q0 0.53125 -0.375 0.875q-0.359375 0.328125 -1.21875 0.328125l-8.171875 0q-0.875 0 -1.25 -0.328125q-0.359375 -0.34375 -0.359375 -0.875q0 -0.53125 0.359375 -0.859375q0.375 -0.34375 1.25 -0.34375l2.875 0l0 -5.828125l-1.921875 0q-0.859375 0 -1.234375 -0.328125q-0.375 -0.34375 -0.375 -0.890625q0 -0.515625 0.359375 -0.84375q0.375 -0.34375 1.25 -0.34375l4.328125 0zm16.964844 0.4375q0.421875 -0.421875 0.890625 -0.421875q0.515625 0 0.84375 0.375q0.328125 0.375 0.328125 1.21875l0 1.546875q0 0.875 -0.328125 1.234375q-0.328125 0.359375 -0.875 0.359375q-0.484375 0 -0.828125 -0.28125q-0.25 -0.203125 -0.390625 -0.84375q-0.140625 -0.65625 -0.671875 -0.984375q-0.953125 -0.5625 -2.4375 -0.5625q-1.6875 0 -2.71875 1.0q-1.03125 1.0 -1.03125 2.515625q0 1.40625 0.984375 2.234375q0.984375 0.8125 3.28125 0.8125q1.5 0 2.4375 -0.3125q0.5625 -0.1875 1.0625 -0.640625q0.515625 -0.453125 0.921875 -0.453125q0.5 0 0.84375 0.375q0.359375 0.359375 0.359375 0.84375q0 0.796875 -1.078125 1.515625q-1.625 1.078125 -4.734375 1.078125q-2.8125 0 -4.359375 -1.171875q-2.109375 -1.5625 -2.109375 -4.265625q0 -2.5625 1.703125 -4.234375q1.71875 -1.6875 4.46875 -1.6875q1.0 0 1.84375 0.1875q0.859375 0.1875 1.59375 0.5625z" fill-rule="nonzero"/><path fill="#000000" fill-opacity="0.0" d="m140.64304 204.60498l0 42.015747l22.48819 0" fill-rule="evenodd"/><path stroke="#000000" stroke-width="2.0" stroke-linejoin="round" stroke-linecap="butt" d="m140.64305 204.60498l0 42.015747l15.634003 0" fill-rule="evenodd"/><path fill="#000000" stroke="#000000" stroke-width="2.0" stroke-linecap="butt" d="m156.27705 246.62073l-2.2491608 2.249176l6.179535 -2.249176l-6.179535 -2.2491608z" fill-rule="evenodd"/><path fill="#eeeeee" d="m332.68607 425.00333l117.921265 0l0 46.04724l-117.921265 0z" fill-rule="evenodd"/><path stroke="#000000" stroke-width="1.0" stroke-linejoin="round" stroke-linecap="butt" d="m332.68607 425.00333l117.921265 0l0 46.04724l-117.921265 0z" fill-rule="evenodd"/><path fill="#000000" d="m366.6096 442.9732q0.21875 -0.3125 0.484375 -0.453125q0.265625 -0.15625 0.578125 -0.15625q0.515625 0 0.84375 0.359375q0.34375 0.359375 0.34375 1.234375l0 2.03125q0 0.875 -0.34375 1.25q-0.328125 0.359375 -0.84375 0.359375q-0.484375 0 -0.78125 -0.265625q-0.296875 -0.265625 -0.4375 -1.015625q-0.078125 -0.484375 -0.328125 -0.75q-0.46875 -0.53125 -1.34375 -0.84375q-0.859375 -0.328125 -1.71875 -0.328125q-1.078125 0 -1.984375 0.46875q-0.90625 0.46875 -1.59375 1.53125q-0.6875 1.046875 -0.6875 2.5l0 1.5625q0 1.734375 1.25 2.90625q1.265625 1.15625 3.5 1.15625q1.34375 0 2.265625 -0.375q0.546875 -0.203125 1.15625 -0.828125q0.375 -0.375 0.578125 -0.484375q0.21875 -0.109375 0.484375 -0.109375q0.484375 0 0.84375 0.359375q0.359375 0.359375 0.359375 0.859375q0 0.484375 -0.484375 1.046875q-0.71875 0.828125 -1.84375 1.296875q-1.515625 0.640625 -3.34375 0.640625q-2.125 0 -3.84375 -0.890625q-1.375 -0.703125 -2.359375 -2.21875q-0.96875 -1.515625 -0.96875 -3.3125l0 -1.625q0 -1.875 0.875 -3.5q0.875 -1.625 2.421875 -2.5q1.546875 -0.875 3.28125 -0.875q1.046875 0 1.953125 0.234375q0.90625 0.234375 1.6875 0.734375zm8.152344 -1.609375l0 5.125q0.75 -0.453125 1.515625 -0.65625q0.78125 -0.21875 1.5625 -0.21875q1.234375 0 2.203125 0.421875q0.984375 0.421875 1.625 1.328125q0.640625 0.90625 0.640625 2.28125l0 4.515625q0.90625 0 1.1875 0.171875q0.5625 0.375 0.5625 1.03125q0 0.53125 -0.359375 0.875q-0.359375 0.328125 -1.234375 0.328125l-2.734375 0q-0.859375 0 -1.234375 -0.328125q-0.359375 -0.34375 -0.359375 -0.875q0 -0.65625 0.5625 -1.03125q0.28125 -0.1875 1.1875 -0.171875l0 -4.34375q0 -0.921875 -0.421875 -1.296875q-0.546875 -0.515625 -1.625 -0.515625q-0.796875 0 -1.421875 0.3125q-0.609375 0.3125 -1.65625 1.34375l0 4.5q0.9375 0 1.203125 0.171875q0.578125 0.375 0.578125 1.03125q0 0.53125 -0.375 0.875q-0.375 0.328125 -1.234375 0.328125l-2.734375 0q-0.859375 0 -1.234375 -0.328125q-0.375 -0.34375 -0.375 -0.875q0 -0.65625 0.578125 -1.03125q0.28125 -0.1875 1.203125 -0.171875l0 -10.390625l-0.421875 0q-0.859375 0 -1.234375 -0.328125q-0.359375 -0.34375 -0.359375 -0.875q0 -0.53125 0.359375 -0.859375q0.375 -0.34375 1.234375 -0.34375l2.8125 0zm21.996094 4.5625l0 8.234375q0.75 0 1.109375 0.34375q0.375 0.34375 0.375 0.859375q0 0.53125 -0.375 0.875q-0.359375 0.328125 -1.234375 0.328125l-2.28125 0l0 -0.546875q-1.03125 0.46875 -1.96875 0.703125q-0.9375 0.234375 -1.78125 0.234375q-1.1875 0 -2.0625 -0.5q-0.859375 -0.5 -1.359375 -1.375q-0.359375 -0.640625 -0.359375 -1.59375l0 -5.15625l-0.421875 0q-0.859375 0 -1.234375 -0.328125q-0.359375 -0.34375 -0.359375 -0.890625q0 -0.515625 0.359375 -0.84375q0.375 -0.34375 1.234375 -0.34375l2.8125 0l0 7.140625q0 0.765625 0.375 1.125q0.375 0.359375 1.125 0.359375q0.734375 0 1.5625 -0.28125q0.84375 -0.296875 2.078125 -1.046875l0 -4.890625l-0.875 0q-0.859375 0 -1.234375 -0.328125q-0.359375 -0.34375 -0.359375 -0.890625q0 -0.515625 0.359375 -0.84375q0.375 -0.34375 1.234375 -0.34375l3.28125 0zm6.8554688 0l0 0.8125q0.65625 -0.5625 1.453125 -0.84375q0.796875 -0.28125 1.71875 -0.28125q2.125 0 3.375 1.3125q0.984375 1.0625 0.984375 2.765625l0 4.46875q0.765625 0 1.125 0.34375q0.359375 0.328125 0.359375 0.859375q0 0.53125 -0.375 0.875q-0.359375 0.328125 -1.234375 0.328125l-2.15625 0q-0.875 0 -1.25 -0.328125q-0.359375 -0.34375 -0.359375 -0.875q0 -0.53125 0.359375 -0.859375q0.359375 -0.34375 1.125 -0.34375l0 -4.53125q0 -0.78125 -0.421875 -1.15625q-0.546875 -0.46875 -1.65625 -0.46875q-0.828125 0 -1.453125 0.328125q-0.625 0.328125 -1.59375 1.359375l0 4.46875q0.9375 0 1.203125 0.171875q0.578125 0.359375 0.578125 1.03125q0 0.53125 -0.375 0.875q-0.375 0.328125 -1.234375 0.328125l-2.734375 0q-0.859375 0 -1.234375 -0.328125q-0.375 -0.34375 -0.375 -0.875q0 -0.65625 0.5625 -1.03125q0.28125 -0.171875 1.21875 -0.171875l0 -5.828125q-0.765625 0 -1.140625 -0.34375q-0.359375 -0.34375 -0.359375 -0.875q0 -0.515625 0.375 -0.84375q0.375 -0.34375 1.234375 -0.34375l2.28125 0zm14.871094 6.640625l0 4.0l-2.8125 0q-0.875 0 -1.25 -0.328125q-0.359375 -0.34375 -0.359375 -0.875q0 -0.53125 0.375 -0.859375q0.375 -0.34375 1.234375 -0.34375l0.40625 0l0 -10.390625l-0.40625 0q-0.875 0 -1.25 -0.328125q-0.359375 -0.34375 -0.359375 -0.875q0 -0.53125 0.359375 -0.859375q0.375 -0.34375 1.25 -0.34375l2.8125 0l0 8.09375l1.875 -1.5q-0.296875 -0.515625 -0.296875 -0.828125q0 -0.53125 0.359375 -0.859375q0.359375 -0.34375 1.234375 -0.34375l2.734375 0q0.875 0 1.234375 0.34375q0.375 0.328125 0.375 0.859375q0 0.53125 -0.375 0.875q-0.359375 0.328125 -1.234375 0.328125l-0.65625 0l-2.921875 2.359375l3.921875 3.46875l0.703125 0q0.875 0 1.234375 0.34375q0.375 0.328125 0.375 0.859375q0 0.53125 -0.375 0.875q-0.359375 0.328125 -1.234375 0.328125l-2.765625 0q-0.859375 0 -1.234375 -0.328125q-0.375 -0.34375 -0.375 -0.875q0 -0.46875 0.40625 -0.90625l-2.546875 -2.25l-0.4375 0.359375z" fill-rule="nonzero"/><path fill="#eeeeee" d="m332.68503 360.73752l175.71655 0l0 46.04727l-175.71655 0z" fill-rule="evenodd"/><path stroke="#000000" stroke-width="1.0" stroke-linejoin="round" stroke-linecap="butt" d="m332.68503 360.73752l175.71655 0l0 46.04727l-175.71655 0z" fill-rule="evenodd"/><path fill="#000000" d="m358.02963 389.8949l0 -9.390625l-0.375 0q-0.859375 0 -1.234375 -0.328125q-0.375 -0.34375 -0.375 -0.890625q0 -0.53125 0.375 -0.859375q0.375 -0.34375 1.234375 -0.34375l6.03125 0q2.15625 0 3.46875 1.203125q1.3125 1.203125 1.3125 2.859375q0 0.78125 -0.3125 1.46875q-0.296875 0.6875 -0.921875 1.28125q1.140625 0.671875 1.703125 1.59375q0.5625 0.90625 0.5625 2.046875q0 0.921875 -0.40625 1.703125q-0.296875 0.59375 -0.75 0.953125q-0.59375 0.484375 -1.46875 0.796875q-0.859375 0.3125 -2.15625 0.3125l-7.0625 0q-0.859375 0 -1.234375 -0.328125q-0.375 -0.34375 -0.375 -0.875q0 -0.53125 0.375 -0.859375q0.375 -0.34375 1.234375 -0.34375l0.375 0zm2.40625 -5.90625l2.640625 0q1.40625 0 2.34375 -0.71875q0.640625 -0.46875 0.640625 -1.1875q0 -0.640625 -0.609375 -1.109375q-0.59375 -0.46875 -1.890625 -0.46875l-3.125 0l0 3.484375zm0 5.90625l4.140625 0q1.46875 0 2.0625 -0.4375q0.46875 -0.328125 0.46875 -0.9375q0 -0.71875 -0.90625 -1.421875q-0.90625 -0.703125 -2.59375 -0.703125l-3.171875 0l0 3.5zm19.058594 2.40625l0 -0.5625q-0.890625 0.484375 -1.984375 0.71875q-1.09375 0.25 -1.984375 0.25q-1.9375 0 -3.140625 -1.03125q-1.203125 -1.03125 -1.203125 -2.265625q0 -1.515625 1.53125 -2.8125q1.546875 -1.296875 4.265625 -1.296875q1.09375 0 2.515625 0.234375l0 -0.578125q0 -0.53125 -0.46875 -0.875q-0.453125 -0.34375 -1.75 -0.34375q-1.0625 0 -2.765625 0.421875q-0.640625 0.15625 -0.984375 0.15625q-0.484375 0 -0.828125 -0.34375q-0.328125 -0.34375 -0.328125 -0.890625q0 -0.296875 0.109375 -0.515625q0.125 -0.234375 0.328125 -0.359375q0.21875 -0.140625 0.890625 -0.328125q0.890625 -0.25 1.8125 -0.390625q0.9375 -0.140625 1.6875 -0.140625q2.234375 0 3.46875 0.96875q1.234375 0.953125 1.234375 2.640625l0 4.9375l0.40625 0q0.875 0 1.234375 0.34375q0.375 0.328125 0.375 0.859375q0 0.53125 -0.375 0.875q-0.359375 0.328125 -1.234375 0.328125l-2.8125 0zm0 -4.296875q-1.4375 -0.28125 -2.65625 -0.28125q-1.46875 0 -2.515625 0.703125q-0.65625 0.46875 -0.65625 0.9375q0 0.328125 0.3125 0.546875q0.59375 0.390625 1.609375 0.390625q0.859375 0 1.953125 -0.34375q1.109375 -0.34375 1.953125 -0.921875l0 -1.03125zm11.746094 -6.34375l0 1.5q1.515625 -1.09375 2.390625 -1.453125q0.875 -0.359375 1.625 -0.359375q1.171875 0 2.28125 0.859375q0.75 0.59375 0.75 1.203125q0 0.515625 -0.359375 0.875q-0.359375 0.34375 -0.859375 0.34375q-0.453125 0 -0.953125 -0.4375q-0.484375 -0.453125 -0.859375 -0.453125q-0.515625 0 -1.515625 0.640625q-1.0 0.625 -2.5 1.890625l0 3.625l3.421875 0q0.875 0 1.234375 0.34375q0.375 0.328125 0.375 0.859375q0 0.53125 -0.375 0.875q-0.359375 0.328125 -1.234375 0.328125l-7.25 0q-0.875 0 -1.25 -0.328125q-0.359375 -0.34375 -0.359375 -0.875q0 -0.53125 0.359375 -0.859375q0.375 -0.34375 1.25 -0.34375l1.421875 0l0 -5.828125l-0.859375 0q-0.875 0 -1.25 -0.328125q-0.359375 -0.34375 -0.359375 -0.890625q0 -0.515625 0.359375 -0.84375q0.375 -0.34375 1.25 -0.34375l3.265625 0zm20.933594 6.53125l-9.859375 0q0.375 0.9375 1.328125 1.515625q0.953125 0.578125 2.59375 0.578125q1.328125 0 3.546875 -0.578125q0.90625 -0.234375 1.265625 -0.234375q0.484375 0 0.8125 0.34375q0.328125 0.34375 0.328125 0.859375q0 0.46875 -0.359375 0.796875q-0.46875 0.421875 -2.28125 0.828125q-1.8125 0.390625 -3.5 0.390625q-2.875 0 -4.609375 -1.625q-1.71875 -1.640625 -1.71875 -4.015625q0 -2.53125 1.859375 -4.109375q1.875 -1.59375 4.3125 -1.59375q1.46875 0 2.6875 0.515625q1.21875 0.515625 1.828125 1.109375q0.84375 0.859375 1.390625 2.140625q0.375 0.890625 0.375 2.0625l0 1.015625zm-2.65625 -2.390625q-0.5625 -1.03125 -1.453125 -1.546875q-0.890625 -0.515625 -2.109375 -0.515625q-1.21875 0 -2.109375 0.515625q-0.890625 0.515625 -1.453125 1.546875l7.125 0zm24.429688 -5.296875l0 9.390625l5.171875 0l0 -2.265625q0 -0.875 0.328125 -1.234375q0.34375 -0.375 0.890625 -0.375q0.515625 0 0.84375 0.375q0.34375 0.359375 0.34375 1.234375l0 4.671875l-11.375 0q-0.875 0 -1.25 -0.328125q-0.359375 -0.34375 -0.359375 -0.875q0 -0.53125 0.359375 -0.859375q0.375 -0.34375 1.25 -0.34375l1.390625 0l0 -9.390625l-1.390625 0q-0.875 0 -1.25 -0.328125q-0.359375 -0.34375 -0.359375 -0.890625q0 -0.53125 0.359375 -0.859375q0.375 -0.34375 1.25 -0.34375l5.203125 0.015625q0.859375 0 1.234375 0.328125q0.375 0.328125 0.375 0.859375q0 0.546875 -0.375 0.890625q-0.375 0.328125 -1.234375 0.328125l-1.40625 0zm16.261719 -3.40625l0 2.546875l-2.859375 0l0 -2.546875l2.859375 0zm0.328125 4.5625l0 8.234375l2.890625 0q0.859375 0 1.21875 0.34375q0.375 0.328125 0.375 0.859375q0 0.53125 -0.375 0.875q-0.359375 0.328125 -1.21875 0.328125l-8.171875 0q-0.875 0 -1.25 -0.328125q-0.359375 -0.34375 -0.359375 -0.875q0 -0.53125 0.359375 -0.859375q0.375 -0.34375 1.25 -0.34375l2.875 0l0 -5.828125l-1.921875 0q-0.859375 0 -1.234375 -0.328125q-0.375 -0.34375 -0.375 -0.890625q0 -0.515625 0.359375 -0.84375q0.375 -0.34375 1.25 -0.34375l4.328125 0zm15.808594 2.8125q-0.578125 -0.359375 -1.234375 -0.546875q-0.640625 -0.1875 -1.34375 -0.1875q-1.390625 0 -2.21875 0.46875q-0.359375 0.1875 -0.359375 0.421875q0 0.28125 0.5 0.53125q0.375 0.1875 1.671875 0.359375q2.390625 0.328125 3.328125 0.65625q1.234375 0.4375 1.890625 1.296875q0.671875 0.859375 0.671875 1.796875q0 1.296875 -1.140625 2.15625q-1.625 1.265625 -4.21875 1.265625q-1.046875 0 -1.9375 -0.1875q-0.875 -0.171875 -1.625 -0.53125q-0.171875 0.15625 -0.375 0.234375q-0.1875 0.078125 -0.40625 0.078125q-0.5625 0 -0.90625 -0.359375q-0.328125 -0.375 -0.328125 -1.25l0 -0.796875q0 -0.875 0.328125 -1.234375q0.34375 -0.375 0.890625 -0.375q0.421875 0 0.71875 0.25q0.296875 0.234375 0.453125 0.8125q0.5625 0.46875 1.328125 0.71875q0.78125 0.234375 1.78125 0.234375q1.65625 0 2.5625 -0.515625q0.4375 -0.265625 0.4375 -0.546875q0 -0.46875 -0.625 -0.765625q-0.609375 -0.3125 -2.5625 -0.515625q-2.890625 -0.3125 -3.859375 -1.171875q-0.984375 -0.859375 -0.984375 -2.109375q0 -1.296875 1.09375 -2.140625q1.484375 -1.171875 3.875 -1.171875q0.828125 0 1.59375 0.15625q0.765625 0.15625 1.46875 0.484375q0.21875 -0.171875 0.40625 -0.25q0.203125 -0.078125 0.375 -0.078125q0.484375 0 0.8125 0.375q0.328125 0.359375 0.328125 1.234375l0 0.578125q0 0.78125 -0.1875 1.0625q-0.375 0.546875 -1.015625 0.546875q-0.4375 0 -0.765625 -0.265625q-0.328125 -0.28125 -0.421875 -0.71875zm11.214844 -0.40625l0 4.8125q0 0.765625 0.3125 1.015625q0.5 0.390625 1.765625 0.390625q1.84375 0 3.390625 -0.78125q0.609375 -0.3125 0.9375 -0.3125q0.46875 0 0.8125 0.359375q0.359375 0.34375 0.359375 0.84375q0 0.46875 -0.375 0.8125q-0.578125 0.546875 -2.28125 1.015625q-1.6875 0.46875 -2.84375 0.46875q-2.234375 0 -3.359375 -0.96875q-1.125 -0.96875 -1.125 -2.375l0 -5.28125l-0.859375 0q-0.875 0 -1.25 -0.328125q-0.359375 -0.34375 -0.359375 -0.890625q0 -0.515625 0.359375 -0.84375q0.375 -0.34375 1.25 -0.34375l0.859375 0l0 -2.171875q0 -0.859375 0.328125 -1.234375q0.34375 -0.375 0.890625 -0.375q0.515625 0 0.84375 0.375q0.34375 0.375 0.34375 1.234375l0 2.171875l4.4375 0q0.875 0 1.234375 0.34375q0.375 0.328125 0.375 0.859375q0 0.53125 -0.375 0.875q-0.359375 0.328125 -1.234375 0.328125l-4.4375 0z" fill-rule="nonzero"/><path fill="#000000" fill-opacity="0.0" d="m306.48193 338.20935l0 45.543304l26.204712 0" fill-rule="evenodd"/><path stroke="#000000" stroke-width="2.0" stroke-linejoin="round" stroke-linecap="butt" d="m306.4819 338.20935l0 45.543304l19.350555 0" fill-rule="evenodd"/><path fill="#000000" stroke="#000000" stroke-width="2.0" stroke-linecap="butt" d="m325.83246 383.75266l-2.2491455 2.249176l6.179535 -2.249176l-6.179535 -2.2491455z" fill-rule="evenodd"/><path fill="#000000" fill-opacity="0.0" d="m391.6467 471.05057l0 42.834625l30.11023 0" fill-rule="evenodd"/><path stroke="#000000" stroke-width="2.0" stroke-linejoin="round" stroke-linecap="butt" d="m391.6467 471.05057l0 42.834625l23.256073 0" fill-rule="evenodd"/><path fill="#000000" stroke="#000000" stroke-width="2.0" stroke-linecap="butt" d="m414.90277 513.8852l-2.249176 2.2492065l6.179535 -2.2492065l-6.179535 -2.2491455z" fill-rule="evenodd"/></g></svg>
